<?xml version="1.0" encoding="us-ascii" standalone="no"?><svg xmlns="http://www.w3.org/2000/svg" xmlns:xlink="http://www.w3.org/1999/xlink" contentStyleType="text/css" height="1545px" preserveAspectRatio="none" style="width:957px;height:1545px;background:#FFFFFF;" version="1.1" viewBox="0 0 957 1545" width="957px" zoomAndPan="magnify"><defs/><g><!--class Customer--><g id="elem_Customer"><rect codeLine="3" fill="#F1F1F1" height="174.3945" id="Customer" rx="2.5" ry="2.5" style="stroke:#181818;stroke-width:0.5;" width="313" x="346.5" y="7"/><text fill="#000000" font-family="sans-serif" font-size="14" lengthAdjust="spacing" textLength="67" x="469.5" y="25.5352">Customer</text><line style="stroke:#181818;stroke-width:0.5;" x1="347.5" x2="658.5" y1="33.4883" y2="33.4883"/><text fill="#000000" font-family="sans-serif" font-size="14" font-weight="bold" lengthAdjust="spacing" textLength="227" x="352.5" y="71.5117">PK | first_name: VARCHAR(255)</text><text fill="#000000" font-family="sans-serif" font-size="14" font-weight="bold" lengthAdjust="spacing" textLength="223" x="352.5" y="88">PK | last_name: VARCHAR(255)</text><line style="stroke:#181818;stroke-width:1.0;stroke-dasharray:1.0,2.0;" x1="347.5" x2="487.5" y1="49.7324" y2="49.7324"/><text fill="#000000" font-family="sans-serif" font-size="14" lengthAdjust="spacing" textLength="31" x="487.5" y="54.5234">Keys</text><line style="stroke:#181818;stroke-width:1.0;stroke-dasharray:1.0,2.0;" x1="518.5" x2="658.5" y1="49.7324" y2="49.7324"/><text fill="#000000" font-family="sans-serif" font-size="14" lengthAdjust="spacing" textLength="149" x="352.5" y="124.9766">email: VARCHAR(255)</text><text fill="#000000" font-family="sans-serif" font-size="14" lengthAdjust="spacing" textLength="178" x="352.5" y="141.4648">password: VARCHAR(255)</text><text fill="#000000" font-family="sans-serif" font-size="14" lengthAdjust="spacing" textLength="115" x="352.5" y="157.9531">order_count: INT</text><text fill="#000000" font-family="sans-serif" font-size="14" lengthAdjust="spacing" textLength="301" x="352.5" y="174.4414">loyalty_rank: [Bronze, Silver, Gold, Platinum]</text><line style="stroke:#181818;stroke-width:1.0;stroke-dasharray:1.0,2.0;" x1="347.5" x2="469" y1="103.1973" y2="103.1973"/><text fill="#000000" font-family="sans-serif" font-size="14" lengthAdjust="spacing" textLength="68" x="469" y="107.9883">Attributes</text><line style="stroke:#181818;stroke-width:1.0;stroke-dasharray:1.0,2.0;" x1="537" x2="658.5" y1="103.1973" y2="103.1973"/></g><!--class Order--><g id="elem_Order"><rect codeLine="15" fill="#F1F1F1" height="190.8828" id="Order" rx="2.5" ry="2.5" style="stroke:#181818;stroke-width:1.0;stroke-dasharray:7.0,7.0;" width="326" x="340" y="241.4"/><text fill="#000000" font-family="sans-serif" font-size="14" lengthAdjust="spacing" textLength="40" x="483" y="259.9352">Order</text><line style="stroke:#181818;stroke-width:0.5;" x1="341" x2="665" y1="267.8883" y2="267.8883"/><text fill="#000000" font-family="sans-serif" font-size="14" font-weight="bold" lengthAdjust="spacing" textLength="157" x="346" y="305.9117">PK | order_date: DATE</text><text fill="#000000" font-family="sans-serif" font-size="14" lengthAdjust="spacing" textLength="294" x="346" y="322.4">FK1 | customer_first_name: VARCHAR(255)</text><text fill="#000000" font-family="sans-serif" font-size="14" lengthAdjust="spacing" textLength="291" x="346" y="338.8883">FK1 | customer_last_name: VARCHAR(255)</text><text fill="#000000" font-family="sans-serif" font-size="14" lengthAdjust="spacing" textLength="314" x="346" y="355.3766">FK2 | mango_chef_first_name: VARCHAR(255)</text><text fill="#000000" font-family="sans-serif" font-size="14" lengthAdjust="spacing" textLength="311" x="346" y="371.8648">FK2 | mango_chef_last_name: VARCHAR(255)</text><line style="stroke:#181818;stroke-width:1.0;stroke-dasharray:1.0,2.0;" x1="341" x2="487.5" y1="284.1324" y2="284.1324"/><text fill="#000000" font-family="sans-serif" font-size="14" lengthAdjust="spacing" textLength="31" x="487.5" y="288.9234">Keys</text><line style="stroke:#181818;stroke-width:1.0;stroke-dasharray:1.0,2.0;" x1="518.5" x2="665" y1="284.1324" y2="284.1324"/><text fill="#000000" font-family="sans-serif" font-size="14" lengthAdjust="spacing" textLength="87" x="346" y="408.8414">price: FLOAT</text><text fill="#000000" font-family="sans-serif" font-size="14" lengthAdjust="spacing" textLength="283" x="346" y="425.3297">status: [Pending, In Progress, Completed]</text><line style="stroke:#181818;stroke-width:1.0;stroke-dasharray:1.0,2.0;" x1="341" x2="469" y1="387.0621" y2="387.0621"/><text fill="#000000" font-family="sans-serif" font-size="14" lengthAdjust="spacing" textLength="68" x="469" y="391.8531">Attributes</text><line style="stroke:#181818;stroke-width:1.0;stroke-dasharray:1.0,2.0;" x1="537" x2="665" y1="387.0621" y2="387.0621"/></g><!--class OrderMeal--><g id="elem_OrderMeal"><rect codeLine="28" fill="#F1F1F1" height="157.9063" id="OrderMeal" rx="2.5" ry="2.5" style="stroke:#181818;stroke-width:1.0;stroke-dasharray:7.0,7.0;" width="306" x="350" y="500.52"/><text fill="#000000" font-family="sans-serif" font-size="14" lengthAdjust="spacing" textLength="72" x="467" y="519.0552">OrderMeal</text><line style="stroke:#181818;stroke-width:0.5;" x1="351" x2="655" y1="527.0083" y2="527.0083"/><text fill="#000000" font-family="sans-serif" font-size="14" font-weight="bold" lengthAdjust="spacing" textLength="157" x="356" y="565.0317">PK | order_date: DATE</text><text fill="#000000" font-family="sans-serif" font-size="14" lengthAdjust="spacing" textLength="294" x="356" y="581.52">FK1 | customer_first_name: VARCHAR(255)</text><text fill="#000000" font-family="sans-serif" font-size="14" lengthAdjust="spacing" textLength="291" x="356" y="598.0083">FK1 | customer_last_name: VARCHAR(255)</text><text fill="#000000" font-family="sans-serif" font-size="14" lengthAdjust="spacing" textLength="229" x="356" y="614.4966">FK2 | meal_name: VARCHAR(255)</text><line style="stroke:#181818;stroke-width:1.0;stroke-dasharray:1.0,2.0;" x1="351" x2="487.5" y1="543.2524" y2="543.2524"/><text fill="#000000" font-family="sans-serif" font-size="14" lengthAdjust="spacing" textLength="31" x="487.5" y="548.0434">Keys</text><line style="stroke:#181818;stroke-width:1.0;stroke-dasharray:1.0,2.0;" x1="518.5" x2="655" y1="543.2524" y2="543.2524"/><text fill="#000000" font-family="sans-serif" font-size="14" lengthAdjust="spacing" textLength="87" x="356" y="651.4731">quantity: INT</text><line style="stroke:#181818;stroke-width:1.0;stroke-dasharray:1.0,2.0;" x1="351" x2="469" y1="629.6938" y2="629.6938"/><text fill="#000000" font-family="sans-serif" font-size="14" lengthAdjust="spacing" textLength="68" x="469" y="634.4848">Attributes</text><line style="stroke:#181818;stroke-width:1.0;stroke-dasharray:1.0,2.0;" x1="537" x2="655" y1="629.6938" y2="629.6938"/></g><!--class Meal--><g id="elem_Meal"><rect codeLine="39" fill="#F1F1F1" height="124.9297" id="Meal" rx="2.5" ry="2.5" style="stroke:#181818;stroke-width:1.0;stroke-dasharray:7.0,7.0;" width="201" x="402.5" y="743.16"/><text fill="#000000" font-family="sans-serif" font-size="14" lengthAdjust="spacing" textLength="32" x="487" y="761.6952">Meal</text><line style="stroke:#181818;stroke-width:0.5;" x1="403.5" x2="602.5" y1="769.6483" y2="769.6483"/><text fill="#000000" font-family="sans-serif" font-size="14" font-weight="bold" lengthAdjust="spacing" textLength="189" x="408.5" y="807.6717">PK | name: VARCHAR(255)</text><line style="stroke:#181818;stroke-width:1.0;stroke-dasharray:1.0,2.0;" x1="403.5" x2="487.5" y1="785.8924" y2="785.8924"/><text fill="#000000" font-family="sans-serif" font-size="14" lengthAdjust="spacing" textLength="31" x="487.5" y="790.6834">Keys</text><line style="stroke:#181818;stroke-width:1.0;stroke-dasharray:1.0,2.0;" x1="518.5" x2="602.5" y1="785.8924" y2="785.8924"/><text fill="#000000" font-family="sans-serif" font-size="14" lengthAdjust="spacing" textLength="87" x="408.5" y="844.6483">price: FLOAT</text><text fill="#000000" font-family="sans-serif" font-size="14" lengthAdjust="spacing" textLength="159" x="408.5" y="861.1366">preparation_time: TIME</text><line style="stroke:#181818;stroke-width:1.0;stroke-dasharray:1.0,2.0;" x1="403.5" x2="469" y1="822.869" y2="822.869"/><text fill="#000000" font-family="sans-serif" font-size="14" lengthAdjust="spacing" textLength="68" x="469" y="827.66">Attributes</text><line style="stroke:#181818;stroke-width:1.0;stroke-dasharray:1.0,2.0;" x1="537" x2="602.5" y1="822.869" y2="822.869"/></g><!--class Recipe--><g id="elem_Recipe"><rect codeLine="48" fill="#F1F1F1" height="141.418" id="Recipe" rx="2.5" ry="2.5" style="stroke:#181818;stroke-width:1.0;stroke-dasharray:7.0,7.0;" width="279" x="363.5" y="952.83"/><text fill="#000000" font-family="sans-serif" font-size="14" lengthAdjust="spacing" textLength="45" x="480.5" y="971.3652">Recipe</text><line style="stroke:#181818;stroke-width:0.5;" x1="364.5" x2="641.5" y1="979.3183" y2="979.3183"/><text fill="#000000" font-family="sans-serif" font-size="14" font-weight="bold" lengthAdjust="spacing" textLength="189" x="369.5" y="1017.3417">PK | name: VARCHAR(255)</text><text fill="#000000" font-family="sans-serif" font-size="14" lengthAdjust="spacing" textLength="267" x="369.5" y="1033.83">FK1 | ingredient_name: VARCHAR(255)</text><text fill="#000000" font-family="sans-serif" font-size="14" lengthAdjust="spacing" textLength="223" x="369.5" y="1050.3183">FK2 | tool_name: VARCHAR(255)</text><line style="stroke:#181818;stroke-width:1.0;stroke-dasharray:1.0,2.0;" x1="364.5" x2="487.5" y1="995.5624" y2="995.5624"/><text fill="#000000" font-family="sans-serif" font-size="14" lengthAdjust="spacing" textLength="31" x="487.5" y="1000.3534">Keys</text><line style="stroke:#181818;stroke-width:1.0;stroke-dasharray:1.0,2.0;" x1="518.5" x2="641.5" y1="995.5624" y2="995.5624"/><text fill="#000000" font-family="sans-serif" font-size="14" lengthAdjust="spacing" textLength="71" x="369.5" y="1087.2948">time: TIME</text><line style="stroke:#181818;stroke-width:1.0;stroke-dasharray:1.0,2.0;" x1="364.5" x2="469" y1="1065.5155" y2="1065.5155"/><text fill="#000000" font-family="sans-serif" font-size="14" lengthAdjust="spacing" textLength="68" x="469" y="1070.3066">Attributes</text><line style="stroke:#181818;stroke-width:1.0;stroke-dasharray:1.0,2.0;" x1="537" x2="641.5" y1="1065.5155" y2="1065.5155"/></g><!--class Step--><g id="elem_Step"><rect codeLine="58" fill="#F1F1F1" height="157.9063" id="Step" rx="2.5" ry="2.5" style="stroke:#181818;stroke-width:1.0;stroke-dasharray:7.0,7.0;" width="322" x="7" y="944.58"/><text fill="#000000" font-family="sans-serif" font-size="14" lengthAdjust="spacing" textLength="30" x="153" y="963.1152">Step</text><line style="stroke:#181818;stroke-width:0.5;" x1="8" x2="328" y1="971.0683" y2="971.0683"/><text fill="#000000" font-family="sans-serif" font-size="14" font-weight="bold" lengthAdjust="spacing" textLength="279" x="13" y="1009.0917">PK , FK1 | recipe_name: VARCHAR(255)</text><text fill="#000000" font-family="sans-serif" font-size="14" font-weight="bold" lengthAdjust="spacing" textLength="310" x="13" y="1025.58">PK , FK2 | ingredient_name: VARCHAR(255)</text><text fill="#000000" font-family="sans-serif" font-size="14" font-weight="bold" lengthAdjust="spacing" textLength="265" x="13" y="1042.0683">PK , FK3 | tool_name: VARCHAR(255)</text><line style="stroke:#181818;stroke-width:1.0;stroke-dasharray:1.0,2.0;" x1="8" x2="152.5" y1="987.3124" y2="987.3124"/><text fill="#000000" font-family="sans-serif" font-size="14" lengthAdjust="spacing" textLength="31" x="152.5" y="992.1034">Keys</text><line style="stroke:#181818;stroke-width:1.0;stroke-dasharray:1.0,2.0;" x1="183.5" x2="328" y1="987.3124" y2="987.3124"/><text fill="#000000" font-family="sans-serif" font-size="14" lengthAdjust="spacing" textLength="189" x="13" y="1079.0448">description: VARCHAR(255)</text><text fill="#000000" font-family="sans-serif" font-size="14" lengthAdjust="spacing" textLength="71" x="13" y="1095.5331">time: TIME</text><line style="stroke:#181818;stroke-width:1.0;stroke-dasharray:1.0,2.0;" x1="8" x2="134" y1="1057.2655" y2="1057.2655"/><text fill="#000000" font-family="sans-serif" font-size="14" lengthAdjust="spacing" textLength="68" x="134" y="1062.0566">Attributes</text><line style="stroke:#181818;stroke-width:1.0;stroke-dasharray:1.0,2.0;" x1="202" x2="328" y1="1057.2655" y2="1057.2655"/></g><!--class RecipeIngredient--><g id="elem_RecipeIngredient"><rect codeLine="69" fill="#F1F1F1" height="124.9297" id="RecipeIngredient" rx="2.5" ry="2.5" style="stroke:#181818;stroke-width:1.0;stroke-dasharray:7.0,7.0;" width="322" x="445" y="1162.49"/><text fill="#000000" font-family="sans-serif" font-size="14" lengthAdjust="spacing" textLength="116" x="548" y="1181.0252">RecipeIngredient</text><line style="stroke:#181818;stroke-width:0.5;" x1="446" x2="766" y1="1188.9783" y2="1188.9783"/><text fill="#000000" font-family="sans-serif" font-size="14" font-weight="bold" lengthAdjust="spacing" textLength="279" x="451" y="1227.0017">PK , FK1 | recipe_name: VARCHAR(255)</text><text fill="#000000" font-family="sans-serif" font-size="14" font-weight="bold" lengthAdjust="spacing" textLength="310" x="451" y="1243.49">PK , FK2 | ingredient_name: VARCHAR(255)</text><line style="stroke:#181818;stroke-width:1.0;stroke-dasharray:1.0,2.0;" x1="446" x2="590.5" y1="1205.2224" y2="1205.2224"/><text fill="#000000" font-family="sans-serif" font-size="14" lengthAdjust="spacing" textLength="31" x="590.5" y="1210.0134">Keys</text><line style="stroke:#181818;stroke-width:1.0;stroke-dasharray:1.0,2.0;" x1="621.5" x2="766" y1="1205.2224" y2="1205.2224"/><text fill="#000000" font-family="sans-serif" font-size="14" lengthAdjust="spacing" textLength="87" x="451" y="1280.4666">quantity: INT</text><line style="stroke:#181818;stroke-width:1.0;stroke-dasharray:1.0,2.0;" x1="446" x2="572" y1="1258.6873" y2="1258.6873"/><text fill="#000000" font-family="sans-serif" font-size="14" lengthAdjust="spacing" textLength="68" x="572" y="1263.4783">Attributes</text><line style="stroke:#181818;stroke-width:1.0;stroke-dasharray:1.0,2.0;" x1="640" x2="766" y1="1258.6873" y2="1258.6873"/></g><!--class RecipeTool--><g id="elem_RecipeTool"><rect codeLine="78" fill="#F1F1F1" height="124.9297" id="RecipeTool" rx="2.5" ry="2.5" style="stroke:#181818;stroke-width:1.0;stroke-dasharray:7.0,7.0;" width="291" x="118.5" y="1162.49"/><text fill="#000000" font-family="sans-serif" font-size="14" lengthAdjust="spacing" textLength="76" x="226" y="1181.0252">RecipeTool</text><line style="stroke:#181818;stroke-width:0.5;" x1="119.5" x2="408.5" y1="1188.9783" y2="1188.9783"/><text fill="#000000" font-family="sans-serif" font-size="14" font-weight="bold" lengthAdjust="spacing" textLength="279" x="124.5" y="1227.0017">PK , FK1 | recipe_name: VARCHAR(255)</text><text fill="#000000" font-family="sans-serif" font-size="14" font-weight="bold" lengthAdjust="spacing" textLength="265" x="124.5" y="1243.49">PK , FK2 | tool_name: VARCHAR(255)</text><line style="stroke:#181818;stroke-width:1.0;stroke-dasharray:1.0,2.0;" x1="119.5" x2="248.5" y1="1205.2224" y2="1205.2224"/><text fill="#000000" font-family="sans-serif" font-size="14" lengthAdjust="spacing" textLength="31" x="248.5" y="1210.0134">Keys</text><line style="stroke:#181818;stroke-width:1.0;stroke-dasharray:1.0,2.0;" x1="279.5" x2="408.5" y1="1205.2224" y2="1205.2224"/><text fill="#000000" font-family="sans-serif" font-size="14" lengthAdjust="spacing" textLength="87" x="124.5" y="1280.4666">quantity: INT</text><line style="stroke:#181818;stroke-width:1.0;stroke-dasharray:1.0,2.0;" x1="119.5" x2="230" y1="1258.6873" y2="1258.6873"/><text fill="#000000" font-family="sans-serif" font-size="14" lengthAdjust="spacing" textLength="68" x="230" y="1263.4783">Attributes</text><line style="stroke:#181818;stroke-width:1.0;stroke-dasharray:1.0,2.0;" x1="298" x2="408.5" y1="1258.6873" y2="1258.6873"/></g><!--class Ingredient--><g id="elem_Ingredient"><rect codeLine="87" fill="#F1F1F1" height="190.8828" id="Ingredient" rx="2.5" ry="2.5" style="stroke:#181818;stroke-width:0.5;" width="201" x="612.5" y="1347.42"/><text fill="#000000" font-family="sans-serif" font-size="14" lengthAdjust="spacing" textLength="71" x="677.5" y="1365.9552">Ingredient</text><line style="stroke:#181818;stroke-width:0.5;" x1="613.5" x2="812.5" y1="1373.9083" y2="1373.9083"/><text fill="#000000" font-family="sans-serif" font-size="14" font-weight="bold" lengthAdjust="spacing" textLength="189" x="618.5" y="1411.9317">PK | name: VARCHAR(255)</text><line style="stroke:#181818;stroke-width:1.0;stroke-dasharray:1.0,2.0;" x1="613.5" x2="697.5" y1="1390.1524" y2="1390.1524"/><text fill="#000000" font-family="sans-serif" font-size="14" lengthAdjust="spacing" textLength="31" x="697.5" y="1394.9434">Keys</text><line style="stroke:#181818;stroke-width:1.0;stroke-dasharray:1.0,2.0;" x1="728.5" x2="812.5" y1="1390.1524" y2="1390.1524"/><text fill="#000000" font-family="sans-serif" font-size="14" lengthAdjust="spacing" textLength="87" x="618.5" y="1448.9083">price: FLOAT</text><text fill="#000000" font-family="sans-serif" font-size="14" lengthAdjust="spacing" textLength="110" x="618.5" y="1465.3966">calories : FLOAT</text><text fill="#000000" font-family="sans-serif" font-size="14" lengthAdjust="spacing" textLength="117" x="618.5" y="1481.8848">availability: BOOL</text><text fill="#000000" font-family="sans-serif" font-size="14" lengthAdjust="spacing" textLength="175" x="618.5" y="1498.3731">allergens: VARCHAR(255)</text><text fill="#000000" font-family="sans-serif" font-size="14" lengthAdjust="spacing" textLength="164" x="618.5" y="1514.8614">country: VARCHAR(255)</text><text fill="#000000" font-family="sans-serif" font-size="14" lengthAdjust="spacing" textLength="157" x="618.5" y="1531.3497">region: VARCHAR(255)</text><line style="stroke:#181818;stroke-width:1.0;stroke-dasharray:1.0,2.0;" x1="613.5" x2="679" y1="1427.129" y2="1427.129"/><text fill="#000000" font-family="sans-serif" font-size="14" lengthAdjust="spacing" textLength="68" x="679" y="1431.92">Attributes</text><line style="stroke:#181818;stroke-width:1.0;stroke-dasharray:1.0,2.0;" x1="747" x2="812.5" y1="1427.129" y2="1427.129"/></g><!--class Tool--><g id="elem_Tool"><rect codeLine="100" fill="#F1F1F1" height="124.9297" id="Tool" rx="2.5" ry="2.5" style="stroke:#181818;stroke-width:0.5;" width="201" x="163.5" y="1380.39"/><text fill="#000000" font-family="sans-serif" font-size="14" lengthAdjust="spacing" textLength="31" x="248.5" y="1398.9252">Tool</text><line style="stroke:#181818;stroke-width:0.5;" x1="164.5" x2="363.5" y1="1406.8783" y2="1406.8783"/><text fill="#000000" font-family="sans-serif" font-size="14" font-weight="bold" lengthAdjust="spacing" textLength="189" x="169.5" y="1444.9017">PK | name: VARCHAR(255)</text><line style="stroke:#181818;stroke-width:1.0;stroke-dasharray:1.0,2.0;" x1="164.5" x2="248.5" y1="1423.1224" y2="1423.1224"/><text fill="#000000" font-family="sans-serif" font-size="14" lengthAdjust="spacing" textLength="31" x="248.5" y="1427.9134">Keys</text><line style="stroke:#181818;stroke-width:1.0;stroke-dasharray:1.0,2.0;" x1="279.5" x2="363.5" y1="1423.1224" y2="1423.1224"/><text fill="#000000" font-family="sans-serif" font-size="14" lengthAdjust="spacing" textLength="87" x="169.5" y="1481.8783">price: FLOAT</text><text fill="#000000" font-family="sans-serif" font-size="14" lengthAdjust="spacing" textLength="117" x="169.5" y="1498.3666">availability: BOOL</text><line style="stroke:#181818;stroke-width:1.0;stroke-dasharray:1.0,2.0;" x1="164.5" x2="230" y1="1460.099" y2="1460.099"/><text fill="#000000" font-family="sans-serif" font-size="14" lengthAdjust="spacing" textLength="68" x="230" y="1464.89">Attributes</text><line style="stroke:#181818;stroke-width:1.0;stroke-dasharray:1.0,2.0;" x1="298" x2="363.5" y1="1460.099" y2="1460.099"/></g><!--class SupplierCompany--><g id="elem_SupplierCompany"><rect codeLine="110" fill="#F1F1F1" height="157.9063" id="SupplierCompany" rx="2.5" ry="2.5" style="stroke:#181818;stroke-width:0.5;" width="260" x="690" y="726.68"/><text fill="#000000" font-family="sans-serif" font-size="14" lengthAdjust="spacing" textLength="122" x="759" y="745.2152">SupplierCompany</text><line style="stroke:#181818;stroke-width:0.5;" x1="691" x2="949" y1="753.1683" y2="753.1683"/><text fill="#000000" font-family="sans-serif" font-size="14" font-weight="bold" lengthAdjust="spacing" textLength="189" x="696" y="791.1917">PK | name: VARCHAR(255)</text><line style="stroke:#181818;stroke-width:1.0;stroke-dasharray:1.0,2.0;" x1="691" x2="804.5" y1="769.4124" y2="769.4124"/><text fill="#000000" font-family="sans-serif" font-size="14" lengthAdjust="spacing" textLength="31" x="804.5" y="774.2034">Keys</text><line style="stroke:#181818;stroke-width:1.0;stroke-dasharray:1.0,2.0;" x1="835.5" x2="949" y1="769.4124" y2="769.4124"/><text fill="#000000" font-family="sans-serif" font-size="14" lengthAdjust="spacing" textLength="149" x="696" y="828.1683">email: VARCHAR(255)</text><text fill="#000000" font-family="sans-serif" font-size="14" lengthAdjust="spacing" textLength="178" x="696" y="844.6566">password: VARCHAR(255)</text><text fill="#000000" font-family="sans-serif" font-size="14" lengthAdjust="spacing" textLength="166" x="696" y="861.1448">address: VARCHAR(255)</text><text fill="#000000" font-family="sans-serif" font-size="14" lengthAdjust="spacing" textLength="248" x="696" y="877.6331">price_category: [Low, Medium, High]</text><line style="stroke:#181818;stroke-width:1.0;stroke-dasharray:1.0,2.0;" x1="691" x2="786" y1="806.389" y2="806.389"/><text fill="#000000" font-family="sans-serif" font-size="14" lengthAdjust="spacing" textLength="68" x="786" y="811.18">Attributes</text><line style="stroke:#181818;stroke-width:1.0;stroke-dasharray:1.0,2.0;" x1="854" x2="949" y1="806.389" y2="806.389"/></g><!--class MangoChef--><g id="elem_MangoChef"><rect codeLine="123" fill="#F1F1F1" height="174.3945" id="MangoChef" rx="2.5" ry="2.5" style="stroke:#181818;stroke-width:0.5;" width="239" x="700.5" y="249.64"/><text fill="#000000" font-family="sans-serif" font-size="14" lengthAdjust="spacing" textLength="79" x="780.5" y="268.1752">MangoChef</text><line style="stroke:#181818;stroke-width:0.5;" x1="701.5" x2="938.5" y1="276.1283" y2="276.1283"/><text fill="#000000" font-family="sans-serif" font-size="14" font-weight="bold" lengthAdjust="spacing" textLength="227" x="706.5" y="314.1517">PK | first_name: VARCHAR(255)</text><text fill="#000000" font-family="sans-serif" font-size="14" font-weight="bold" lengthAdjust="spacing" textLength="223" x="706.5" y="330.64">PK | last_name: VARCHAR(255)</text><line style="stroke:#181818;stroke-width:1.0;stroke-dasharray:1.0,2.0;" x1="701.5" x2="804.5" y1="292.3724" y2="292.3724"/><text fill="#000000" font-family="sans-serif" font-size="14" lengthAdjust="spacing" textLength="31" x="804.5" y="297.1634">Keys</text><line style="stroke:#181818;stroke-width:1.0;stroke-dasharray:1.0,2.0;" x1="835.5" x2="938.5" y1="292.3724" y2="292.3724"/><text fill="#000000" font-family="sans-serif" font-size="14" lengthAdjust="spacing" textLength="149" x="706.5" y="367.6166">email: VARCHAR(255)</text><text fill="#000000" font-family="sans-serif" font-size="14" lengthAdjust="spacing" textLength="178" x="706.5" y="384.1048">password: VARCHAR(255)</text><text fill="#000000" font-family="sans-serif" font-size="14" lengthAdjust="spacing" textLength="93" x="706.5" y="400.5931">salary: FLOAT</text><text fill="#000000" font-family="sans-serif" font-size="14" lengthAdjust="spacing" textLength="134" x="706.5" y="417.0814">working_hours: INT</text><line style="stroke:#181818;stroke-width:1.0;stroke-dasharray:1.0,2.0;" x1="701.5" x2="786" y1="345.8373" y2="345.8373"/><text fill="#000000" font-family="sans-serif" font-size="14" lengthAdjust="spacing" textLength="68" x="786" y="350.6283">Attributes</text><line style="stroke:#181818;stroke-width:1.0;stroke-dasharray:1.0,2.0;" x1="854" x2="938.5" y1="345.8373" y2="345.8373"/></g><!--class MangoManager--><g id="elem_MangoManager"><rect codeLine="135" fill="#F1F1F1" height="174.3945" id="MangoManager" rx="2.5" ry="2.5" style="stroke:#181818;stroke-width:0.5;" width="239" x="700.5" y="492.28"/><text fill="#000000" font-family="sans-serif" font-size="14" lengthAdjust="spacing" textLength="107" x="766.5" y="510.8152">MangoManager</text><line style="stroke:#181818;stroke-width:0.5;" x1="701.5" x2="938.5" y1="518.7683" y2="518.7683"/><text fill="#000000" font-family="sans-serif" font-size="14" font-weight="bold" lengthAdjust="spacing" textLength="227" x="706.5" y="556.7917">PK | first_name: VARCHAR(255)</text><text fill="#000000" font-family="sans-serif" font-size="14" font-weight="bold" lengthAdjust="spacing" textLength="223" x="706.5" y="573.28">PK | last_name: VARCHAR(255)</text><line style="stroke:#181818;stroke-width:1.0;stroke-dasharray:1.0,2.0;" x1="701.5" x2="804.5" y1="535.0124" y2="535.0124"/><text fill="#000000" font-family="sans-serif" font-size="14" lengthAdjust="spacing" textLength="31" x="804.5" y="539.8034">Keys</text><line style="stroke:#181818;stroke-width:1.0;stroke-dasharray:1.0,2.0;" x1="835.5" x2="938.5" y1="535.0124" y2="535.0124"/><text fill="#000000" font-family="sans-serif" font-size="14" lengthAdjust="spacing" textLength="149" x="706.5" y="610.2566">email: VARCHAR(255)</text><text fill="#000000" font-family="sans-serif" font-size="14" lengthAdjust="spacing" textLength="178" x="706.5" y="626.7448">password: VARCHAR(255)</text><text fill="#000000" font-family="sans-serif" font-size="14" lengthAdjust="spacing" textLength="93" x="706.5" y="643.2331">salary: FLOAT</text><text fill="#000000" font-family="sans-serif" font-size="14" lengthAdjust="spacing" textLength="134" x="706.5" y="659.7214">working_hours: INT</text><line style="stroke:#181818;stroke-width:1.0;stroke-dasharray:1.0,2.0;" x1="701.5" x2="786" y1="588.4773" y2="588.4773"/><text fill="#000000" font-family="sans-serif" font-size="14" lengthAdjust="spacing" textLength="68" x="786" y="593.2683">Attributes</text><line style="stroke:#181818;stroke-width:1.0;stroke-dasharray:1.0,2.0;" x1="854" x2="938.5" y1="588.4773" y2="588.4773"/></g><!--link MangoManager to SupplierCompany--><g id="link_MangoManager_SupplierCompany"><path codeLine="147" d="M820,675.14 C820,694.6 820,689.15 820,708.25 " fill="none" id="MangoManager-SupplierCompany" style="stroke:#181818;stroke-width:1.0;"/><line style="stroke:#181818;stroke-width:1.0;" x1="820" x2="814" y1="675.14" y2="667.14"/><line style="stroke:#181818;stroke-width:1.0;" x1="820" x2="826" y1="675.14" y2="667.14"/><line style="stroke:#181818;stroke-width:1.0;" x1="820" x2="820" y1="675.14" y2="667.14"/><line style="stroke:#181818;stroke-width:1.0;" x1="816" x2="824" y1="677.14" y2="677.14"/><line style="stroke:#181818;stroke-width:1.0;" x1="820" x2="826" y1="718.25" y2="726.25"/><line style="stroke:#181818;stroke-width:1.0;" x1="820" x2="814" y1="718.25" y2="726.25"/><line style="stroke:#181818;stroke-width:1.0;" x1="820" x2="820" y1="718.25" y2="726.25"/><ellipse cx="820" cy="712.25" fill="none" rx="4" ry="4" style="stroke:#181818;stroke-width:1.0;"/></g><!--link MangoChef to MangoManager--><g id="link_MangoChef_MangoManager"><path codeLine="148" d="M820,442.38 C820,464.34 820,461.94 820,483.9 " fill="none" id="MangoChef-MangoManager" style="stroke:#181818;stroke-width:1.0;"/><line style="stroke:#181818;stroke-width:1.0;" x1="820" x2="814" y1="432.38" y2="424.38"/><line style="stroke:#181818;stroke-width:1.0;" x1="820" x2="826" y1="432.38" y2="424.38"/><line style="stroke:#181818;stroke-width:1.0;" x1="820" x2="820" y1="432.38" y2="424.38"/><ellipse cx="820" cy="438.38" fill="none" rx="4" ry="4" style="stroke:#181818;stroke-width:1.0;"/><line style="stroke:#181818;stroke-width:1.0;" x1="820" x2="826" y1="483.9" y2="491.9"/><line style="stroke:#181818;stroke-width:1.0;" x1="820" x2="814" y1="483.9" y2="491.9"/><line style="stroke:#181818;stroke-width:1.0;" x1="820" x2="820" y1="483.9" y2="491.9"/><line style="stroke:#181818;stroke-width:1.0;" x1="824" x2="816" y1="481.9" y2="481.9"/></g><!--link Order to MangoChef--><g id="link_Order_MangoChef"><path codeLine="149" d="M684.45,336.84 C695.65,336.84 680.85,336.84 692.04,336.84 " fill="none" id="Order-MangoChef" style="stroke:#181818;stroke-width:1.0;"/><line style="stroke:#181818;stroke-width:1.0;" x1="674.45" x2="666.45" y1="336.84" y2="342.84"/><line style="stroke:#181818;stroke-width:1.0;" x1="674.45" x2="666.45" y1="336.84" y2="330.84"/><line style="stroke:#181818;stroke-width:1.0;" x1="674.45" x2="666.45" y1="336.84" y2="336.84"/><ellipse cx="680.45" cy="336.84" fill="none" rx="4" ry="4" style="stroke:#181818;stroke-width:1.0;"/><line style="stroke:#181818;stroke-width:1.0;" x1="696.04" x2="696.04" y1="332.84" y2="340.84"/><line style="stroke:#181818;stroke-width:1.0;" x1="693.04" x2="693.04" y1="332.84" y2="340.84"/><line style="stroke:#181818;stroke-width:1.0;" x1="692.04" x2="700.04" y1="336.84" y2="336.84"/></g><!--link SupplierCompany to Ingredient--><g id="link_SupplierCompany_Ingredient"><path codeLine="151" d="M822.6838,893.0293 C823.9338,989.3593 819.75,1149.04 784,1287.42 C778.87,1307.27 774.4611,1320.3853 766.1411,1339.6553 " fill="none" id="SupplierCompany-Ingredient" style="stroke:#181818;stroke-width:1.0;"/><line style="stroke:#181818;stroke-width:1.0;" x1="818.6322" x2="826.6316" y1="889.0816" y2="888.9778"/><line style="stroke:#181818;stroke-width:1.0;" x1="818.6712" x2="826.6705" y1="892.0813" y2="891.9775"/><line style="stroke:#181818;stroke-width:1.0;" x1="822.6838" x2="822.58" y1="893.0293" y2="885.03"/><line style="stroke:#181818;stroke-width:1.0;" x1="766.1411" x2="768.4785" y1="1339.6553" y2="1349.3783"/><line style="stroke:#181818;stroke-width:1.0;" x1="766.1411" x2="757.4615" y1="1339.6553" y2="1344.6217"/><line style="stroke:#181818;stroke-width:1.0;" x1="766.1411" x2="762.97" y1="1339.6553" y2="1347"/><line style="stroke:#181818;stroke-width:1.0;" x1="770.6062" x2="763.2616" y1="1339.4047" y2="1336.2336"/></g><!--link Customer to Order--><g id="link_Customer_Order"><path codeLine="153" d="M503,189.74 C503,209 503,203.53 503,223.11 " fill="none" id="Customer-Order" style="stroke:#181818;stroke-width:1.0;"/><line style="stroke:#181818;stroke-width:1.0;" x1="499" x2="507" y1="185.74" y2="185.74"/><line style="stroke:#181818;stroke-width:1.0;" x1="499" x2="507" y1="188.74" y2="188.74"/><line style="stroke:#181818;stroke-width:1.0;" x1="503" x2="503" y1="189.74" y2="181.74"/><line style="stroke:#181818;stroke-width:1.0;" x1="503" x2="509" y1="233.11" y2="241.11"/><line style="stroke:#181818;stroke-width:1.0;" x1="503" x2="497" y1="233.11" y2="241.11"/><line style="stroke:#181818;stroke-width:1.0;" x1="503" x2="503" y1="233.11" y2="241.11"/><ellipse cx="503" cy="227.11" fill="none" rx="4" ry="4" style="stroke:#181818;stroke-width:1.0;"/></g><!--link Order to OrderMeal--><g id="link_Order_OrderMeal"><path codeLine="154" d="M503,450.6 C503,472.96 503,470.55 503,492.1 " fill="none" id="Order-OrderMeal" style="stroke:#181818;stroke-width:1.0;"/><line style="stroke:#181818;stroke-width:1.0;" x1="503" x2="497" y1="440.6" y2="432.6"/><line style="stroke:#181818;stroke-width:1.0;" x1="503" x2="509" y1="440.6" y2="432.6"/><line style="stroke:#181818;stroke-width:1.0;" x1="503" x2="503" y1="440.6" y2="432.6"/><ellipse cx="503" cy="446.6" fill="none" rx="4" ry="4" style="stroke:#181818;stroke-width:1.0;"/><line style="stroke:#181818;stroke-width:1.0;" x1="503" x2="509" y1="492.1" y2="500.1"/><line style="stroke:#181818;stroke-width:1.0;" x1="503" x2="497" y1="492.1" y2="500.1"/><line style="stroke:#181818;stroke-width:1.0;" x1="503" x2="503" y1="492.1" y2="500.1"/><line style="stroke:#181818;stroke-width:1.0;" x1="507" x2="499" y1="490.1" y2="490.1"/></g><!--link OrderMeal to Meal--><g id="link_OrderMeal_Meal"><path codeLine="155" d="M503,676.87 C503,704.4 503,708.91 503,734.87 " fill="none" id="OrderMeal-Meal" style="stroke:#181818;stroke-width:1.0;"/><line style="stroke:#181818;stroke-width:1.0;" x1="503" x2="497" y1="666.87" y2="658.87"/><line style="stroke:#181818;stroke-width:1.0;" x1="503" x2="509" y1="666.87" y2="658.87"/><line style="stroke:#181818;stroke-width:1.0;" x1="503" x2="503" y1="666.87" y2="658.87"/><ellipse cx="503" cy="672.87" fill="none" rx="4" ry="4" style="stroke:#181818;stroke-width:1.0;"/><line style="stroke:#181818;stroke-width:1.0;" x1="503" x2="509" y1="734.87" y2="742.87"/><line style="stroke:#181818;stroke-width:1.0;" x1="503" x2="497" y1="734.87" y2="742.87"/><line style="stroke:#181818;stroke-width:1.0;" x1="503" x2="503" y1="734.87" y2="742.87"/><line style="stroke:#181818;stroke-width:1.0;" x1="507" x2="499" y1="732.87" y2="732.87"/></g><!--link Meal to Recipe--><g id="link_Meal_Recipe"><path codeLine="156" d="M503,886.5 C503,912.79 503,917.57 503,944.68 " fill="none" id="Meal-Recipe" style="stroke:#181818;stroke-width:1.0;"/><line style="stroke:#181818;stroke-width:1.0;" x1="503" x2="497" y1="876.5" y2="868.5"/><line style="stroke:#181818;stroke-width:1.0;" x1="503" x2="509" y1="876.5" y2="868.5"/><line style="stroke:#181818;stroke-width:1.0;" x1="503" x2="503" y1="876.5" y2="868.5"/><ellipse cx="503" cy="882.5" fill="none" rx="4" ry="4" style="stroke:#181818;stroke-width:1.0;"/><line style="stroke:#181818;stroke-width:1.0;" x1="503" x2="509" y1="944.68" y2="952.68"/><line style="stroke:#181818;stroke-width:1.0;" x1="503" x2="497" y1="944.68" y2="952.68"/><line style="stroke:#181818;stroke-width:1.0;" x1="503" x2="503" y1="944.68" y2="952.68"/><line style="stroke:#181818;stroke-width:1.0;" x1="507" x2="499" y1="942.68" y2="942.68"/></g><!--link Recipe to RecipeIngredient--><g id="link_Recipe_RecipeIngredient"><path codeLine="158" d="M547.4285,1110.5536 C558.7885,1132.5536 559.3196,1133.5617 570.3696,1154.9617 " fill="none" id="Recipe-RecipeIngredient" style="stroke:#181818;stroke-width:1.0;"/><line style="stroke:#181818;stroke-width:1.0;" x1="542.8405" x2="533.8388" y1="1101.6683" y2="1097.3128"/><line style="stroke:#181818;stroke-width:1.0;" x1="542.8405" x2="544.5012" y1="1101.6683" y2="1091.8072"/><line style="stroke:#181818;stroke-width:1.0;" x1="542.8405" x2="539.17" y1="1101.6683" y2="1094.56"/><ellipse cx="545.5933" cy="1106.9995" fill="none" rx="4" ry="4" style="stroke:#181818;stroke-width:1.0;"/><line style="stroke:#181818;stroke-width:1.0;" x1="570.3696" x2="579.3712" y1="1154.9617" y2="1159.3172"/><line style="stroke:#181818;stroke-width:1.0;" x1="570.3696" x2="568.7088" y1="1154.9617" y2="1164.8228"/><line style="stroke:#181818;stroke-width:1.0;" x1="570.3696" x2="574.04" y1="1154.9617" y2="1162.07"/><line style="stroke:#181818;stroke-width:1.0;" x1="573.0061" x2="565.8978" y1="1151.3494" y2="1155.0198"/></g><!--link Recipe to RecipeTool--><g id="link_Recipe_RecipeTool"><path codeLine="159" d="M405.2506,1106.0936 C378.8906,1128.0936 369.9518,1135.5438 344.3118,1156.9438 " fill="none" id="Recipe-RecipeTool" style="stroke:#181818;stroke-width:1.0;"/><line style="stroke:#181818;stroke-width:1.0;" x1="412.9281" x2="415.2255" y1="1099.6861" y2="1089.9535"/><line style="stroke:#181818;stroke-width:1.0;" x1="412.9281" x2="422.9145" y1="1099.6861" y2="1099.1665"/><line style="stroke:#181818;stroke-width:1.0;" x1="412.9281" x2="419.07" y1="1099.6861" y2="1094.56"/><ellipse cx="408.3216" cy="1103.5306" fill="none" rx="4" ry="4" style="stroke:#181818;stroke-width:1.0;"/><line style="stroke:#181818;stroke-width:1.0;" x1="344.3118" x2="342.0146" y1="1156.9438" y2="1166.6764"/><line style="stroke:#181818;stroke-width:1.0;" x1="344.3118" x2="334.3254" y1="1156.9438" y2="1157.4636"/><line style="stroke:#181818;stroke-width:1.0;" x1="344.3118" x2="338.17" y1="1156.9438" y2="1162.07"/><line style="stroke:#181818;stroke-width:1.0;" x1="348.4104" x2="343.2842" y1="1158.7332" y2="1152.5913"/></g><!--link RecipeIngredient to Ingredient--><g id="link_RecipeIngredient_Ingredient"><path codeLine="160" d="M644.6538,1303.9476 C653.7938,1322.3876 652.4881,1319.7518 662.4181,1339.7918 " fill="none" id="RecipeIngredient-Ingredient" style="stroke:#181818;stroke-width:1.0;"/><line style="stroke:#181818;stroke-width:1.0;" x1="640.2128" x2="631.2841" y1="1294.9878" y2="1290.4846"/><line style="stroke:#181818;stroke-width:1.0;" x1="640.2128" x2="642.0359" y1="1294.9878" y2="1285.1554"/><line style="stroke:#181818;stroke-width:1.0;" x1="640.2128" x2="636.66" y1="1294.9878" y2="1287.82"/><ellipse cx="642.8774" cy="1300.3637" fill="none" rx="4" ry="4" style="stroke:#181818;stroke-width:1.0;"/><line style="stroke:#181818;stroke-width:1.0;" x1="662.4181" x2="671.3462" y1="1339.7918" y2="1344.2961"/><line style="stroke:#181818;stroke-width:1.0;" x1="662.4181" x2="660.5938" y1="1339.7918" y2="1349.6239"/><line style="stroke:#181818;stroke-width:1.0;" x1="662.4181" x2="665.97" y1="1339.7918" y2="1346.96"/><line style="stroke:#181818;stroke-width:1.0;" x1="665.1142" x2="657.946" y1="1336.2237" y2="1339.7757"/></g><!--link RecipeTool to Tool--><g id="link_RecipeTool_Tool"><path codeLine="161" d="M264,1305.82 C264,1334.73 264,1343.07 264,1371.98 " fill="none" id="RecipeTool-Tool" style="stroke:#181818;stroke-width:1.0;"/><line style="stroke:#181818;stroke-width:1.0;" x1="264" x2="258" y1="1295.82" y2="1287.82"/><line style="stroke:#181818;stroke-width:1.0;" x1="264" x2="270" y1="1295.82" y2="1287.82"/><line style="stroke:#181818;stroke-width:1.0;" x1="264" x2="264" y1="1295.82" y2="1287.82"/><ellipse cx="264" cy="1301.82" fill="none" rx="4" ry="4" style="stroke:#181818;stroke-width:1.0;"/><line style="stroke:#181818;stroke-width:1.0;" x1="264" x2="270" y1="1371.98" y2="1379.98"/><line style="stroke:#181818;stroke-width:1.0;" x1="264" x2="258" y1="1371.98" y2="1379.98"/><line style="stroke:#181818;stroke-width:1.0;" x1="264" x2="264" y1="1371.98" y2="1379.98"/><line style="stroke:#181818;stroke-width:1.0;" x1="268" x2="260" y1="1369.98" y2="1369.98"/></g><!--reverse link Step to Recipe--><g id="link_Step_Recipe"><path codeLine="163" d="M337.28,1023.53 C348.59,1023.53 351.9,1023.53 363.21,1023.53 " fill="none" id="Step-backto-Recipe" style="stroke:#181818;stroke-width:1.0;"/><line style="stroke:#181818;stroke-width:1.0;" x1="337.28" x2="329.28" y1="1023.53" y2="1029.53"/><line style="stroke:#181818;stroke-width:1.0;" x1="337.28" x2="329.28" y1="1023.53" y2="1017.53"/><line style="stroke:#181818;stroke-width:1.0;" x1="337.28" x2="329.28" y1="1023.53" y2="1023.53"/><line style="stroke:#181818;stroke-width:1.0;" x1="339.28" x2="339.28" y1="1027.53" y2="1019.53"/></g><!--SRC=[rLPHJzim47xFhx34ooQbbSR42vecbGv6LLWhgFPIeSZ4HshXs9djK6Lj__jifqso9WGoXZRwKBM-p-VxlhFlxfmIG26L8GFF0wwfpj0mLLh48BsLXyodtnz3flfzz-VJxUVf6AtH7PLA1np7S8o-3ww6vuEhTuT7H-z_0p7yEARV7sWjwMsgOUSROanP0pJ1IYs590qcimeo24NAzJ4QVPkvHIOop7GMICplZz7yH0h-4tnqJTa3I1zz5OpuQCgmfZoDRxnDGNnYlQ63Wpd1QW7afas0_6I2jI7tPJ0xTSQpyGTZ2hVw1QqYxM7Rj3eR7nfeZ7aaWd01TqyvtaDtJ4CYQMYWPnUJGQwdqbYdoYWv1KueZtmqucWgHIH1AHyDHPmmq5QlFIal0RF_LquJN0TLVgJOCSklMKcq0ySNf22Ha61fRgpWWQRMpMnqULe9umf2ci3B0iabD0cMGAZnswwV5gABVerHNsj8dXMplmrEEfhjTSVV1lWqaHB_iJiX0YgKDB4fQTZGagHH4TS_fDxXXkTHpumwhnPlH-aVYxHKzfMUOOYPa1GKgYxY1zEsy2rbBgAJoUGYNsOCP0HSDPpb6fRC6YmIelg5AXdQBBmIjmOQvjpYfQP9mYX8M-mnpxoLsV4tmlY3dey9iOsdQPFb58IcYKJ2gZk_44lVL6X2qzX7vpHQk1PLrcxR8uUcHRw1IKTXXYsdCc46U6yUUh0GgLIrjcIfcIySlOavxhdighJGPjqZOibxObMxdlkuDB6eCj_5BxHUznZSQMjsCuldxVco27VCUbKjCDvkIYxiXOTyZ4GRKUmhfY6ld8igPcVPNypBhkTjEtlDKedbCOYh5hMcKu7LVBWgNm4u3pl_kL1crRRjNm00]--></g></svg>