<?xml version="1.0" encoding="us-ascii" standalone="no"?><svg xmlns="http://www.w3.org/2000/svg" xmlns:xlink="http://www.w3.org/1999/xlink" contentStyleType="text/css" height="1330px" preserveAspectRatio="none" style="width:1019px;height:1330px;background:#FFFFFF;" version="1.1" viewBox="0 0 1019 1330" width="1019px" zoomAndPan="magnify"><defs/><g><!--class Customer--><g id="elem_Customer"><rect codeLine="3" fill="#F1F1F1" height="124.9297" id="Customer" rx="2.5" ry="2.5" style="stroke:#181818;stroke-width:0.5;" width="291" x="374.5" y="7"/><text fill="#000000" font-family="sans-serif" font-size="14" lengthAdjust="spacing" textLength="67" x="486.5" y="25.5352">Customer</text><line style="stroke:#181818;stroke-width:0.5;" x1="375.5" x2="664.5" y1="33.4883" y2="33.4883"/><text fill="#000000" font-family="sans-serif" font-size="14" font-weight="bold" lengthAdjust="spacing" text-decoration="underline" textLength="190" x="380.5" y="51.0234">PK | email: VARCHAR(255)</text><line style="stroke:#181818;stroke-width:1.0;" x1="375.5" x2="664.5" y1="57.9766" y2="57.9766"/><text fill="#000000" font-family="sans-serif" font-size="14" font-weight="bold" lengthAdjust="spacing" textLength="203" x="405.5" y="75.5117">| first_name: VARCHAR(255)</text><text fill="#000000" font-family="sans-serif" font-size="14" font-weight="bold" lengthAdjust="spacing" textLength="199" x="405.5" y="92">| last_name: VARCHAR(255)</text><text fill="#000000" font-family="sans-serif" font-size="14" font-weight="bold" lengthAdjust="spacing" textLength="195" x="405.5" y="108.4883">| password: VARCHAR(255)</text><text fill="#000000" font-family="sans-serif" font-size="14" font-weight="bold" lengthAdjust="spacing" textLength="254" x="405.5" y="124.9766">| loyalty_rank: [Bronze, Silver, Gold]</text></g><!--class Order--><g id="elem_Order"><rect codeLine="13" fill="#F1F1F1" height="124.9297" id="Order" rx="2.5" ry="2.5" style="stroke:#181818;stroke-width:0.5;" width="344" x="348" y="208.42"/><text fill="#000000" font-family="sans-serif" font-size="14" lengthAdjust="spacing" textLength="40" x="500" y="226.9552">Order</text><line style="stroke:#181818;stroke-width:0.5;" x1="349" x2="691" y1="234.9083" y2="234.9083"/><text fill="#000000" font-family="sans-serif" font-size="14" font-weight="bold" lengthAdjust="spacing" text-decoration="underline" textLength="161" x="354" y="252.4434">PK | time: TIMESTAMP</text><line style="stroke:#181818;stroke-width:1.0;" x1="349" x2="691" y1="259.3966" y2="259.3966"/><text fill="#000000" font-family="sans-serif" font-size="14" font-weight="bold" lengthAdjust="spacing" textLength="272" x="354" y="276.9317">FK1 | customer_email: VARCHAR(255)</text><text fill="#000000" font-family="sans-serif" font-size="14" font-weight="bold" lengthAdjust="spacing" textLength="291" x="354" y="293.42">FK2 | mango_chef_email: VARCHAR(255)</text><text fill="#000000" font-family="sans-serif" font-size="14" font-weight="bold" lengthAdjust="spacing" textLength="101" x="379" y="309.9083">| price: FLOAT</text><text fill="#000000" font-family="sans-serif" font-size="14" font-weight="bold" lengthAdjust="spacing" textLength="307" x="379" y="326.3966">| status: [Pending, In Progress, Completed]</text></g><!--class OrderDeal--><g id="elem_OrderDeal"><rect codeLine="23" fill="#F1F1F1" height="91.9531" id="OrderDeal" rx="2.5" ry="2.5" style="stroke:#181818;stroke-width:1.0;stroke-dasharray:7.0,7.0;" width="273" x="383.5" y="434.57"/><text fill="#000000" font-family="sans-serif" font-size="14" lengthAdjust="spacing" textLength="70" x="485" y="453.1052">OrderDeal</text><line style="stroke:#181818;stroke-width:0.5;" x1="384.5" x2="655.5" y1="461.0583" y2="461.0583"/><text fill="#000000" font-family="sans-serif" font-size="14" font-weight="bold" lengthAdjust="spacing" text-decoration="underline" textLength="241" x="389.5" y="478.5934">PK ,FK1 | order_time: TIMESTAMP</text><text fill="#000000" font-family="sans-serif" font-size="14" font-weight="bold" lengthAdjust="spacing" text-decoration="underline" textLength="261" x="389.5" y="495.0817">PK ,FK2 | deal_name: VARCHAR(255)</text><line style="stroke:#181818;stroke-width:1.0;" x1="384.5" x2="655.5" y1="502.0348" y2="502.0348"/><text fill="#000000" font-family="sans-serif" font-size="14" font-weight="bold" lengthAdjust="spacing" textLength="104" x="414.5" y="519.57">| quantity: INT</text></g><!--class Deal--><g id="elem_Deal"><rect codeLine="31" fill="#F1F1F1" height="124.9297" id="Deal" rx="2.5" ry="2.5" style="stroke:#181818;stroke-width:0.5;" width="259" x="390.5" y="619.5"/><text fill="#000000" font-family="sans-serif" font-size="14" lengthAdjust="spacing" textLength="30" x="505" y="638.0352">Deal</text><line style="stroke:#181818;stroke-width:0.5;" x1="391.5" x2="648.5" y1="645.9883" y2="645.9883"/><text fill="#000000" font-family="sans-serif" font-size="14" font-weight="bold" lengthAdjust="spacing" text-decoration="underline" textLength="189" x="396.5" y="663.5234">PK | name: VARCHAR(255)</text><line style="stroke:#181818;stroke-width:1.0;" x1="391.5" x2="648.5" y1="670.4766" y2="670.4766"/><text fill="#000000" font-family="sans-serif" font-size="14" font-weight="bold" lengthAdjust="spacing" textLength="214" x="396.5" y="688.0117">FK1 | order_time: TIMESTAMP</text><text fill="#000000" font-family="sans-serif" font-size="14" font-weight="bold" lengthAdjust="spacing" textLength="247" x="396.5" y="704.5">FK2 | recipe_name: VARCHAR(255)</text><text fill="#000000" font-family="sans-serif" font-size="14" font-weight="bold" lengthAdjust="spacing" textLength="101" x="421.5" y="720.9883">| price: FLOAT</text><text fill="#000000" font-family="sans-serif" font-size="14" font-weight="bold" lengthAdjust="spacing" textLength="177" x="421.5" y="737.4766">| preparation_time: TIME</text></g><!--class RecipeDeal--><g id="elem_RecipeDeal"><rect codeLine="41" fill="#F1F1F1" height="91.9531" id="RecipeDeal" rx="2.5" ry="2.5" style="stroke:#181818;stroke-width:1.0;stroke-dasharray:7.0,7.0;" width="291" x="374.5" y="853.89"/><text fill="#000000" font-family="sans-serif" font-size="14" lengthAdjust="spacing" textLength="75" x="482.5" y="872.4252">RecipeDeal</text><line style="stroke:#181818;stroke-width:0.5;" x1="375.5" x2="664.5" y1="880.3783" y2="880.3783"/><text fill="#000000" font-family="sans-serif" font-size="14" font-weight="bold" lengthAdjust="spacing" text-decoration="underline" textLength="279" x="380.5" y="897.9134">PK , FK1 | recipe_name: VARCHAR(255)</text><text fill="#000000" font-family="sans-serif" font-size="14" font-weight="bold" lengthAdjust="spacing" text-decoration="underline" textLength="266" x="380.5" y="914.4017">PK , FK2 | deal_name: VARCHAR(255)</text><line style="stroke:#181818;stroke-width:1.0;" x1="375.5" x2="664.5" y1="921.3548" y2="921.3548"/><text fill="#000000" font-family="sans-serif" font-size="14" font-weight="bold" lengthAdjust="spacing" textLength="104" x="405.5" y="938.89">| quantity: INT</text></g><!--class Recipe--><g id="elem_Recipe"><rect codeLine="49" fill="#F1F1F1" height="91.9531" id="Recipe" rx="2.5" ry="2.5" style="stroke:#181818;stroke-width:0.5;" width="290" x="375" y="1047.07"/><text fill="#000000" font-family="sans-serif" font-size="14" lengthAdjust="spacing" textLength="45" x="497.5" y="1065.6052">Recipe</text><line style="stroke:#181818;stroke-width:0.5;" x1="376" x2="664" y1="1073.5583" y2="1073.5583"/><text fill="#000000" font-family="sans-serif" font-size="14" font-weight="bold" lengthAdjust="spacing" text-decoration="underline" textLength="189" x="381" y="1091.0934">PK | name: VARCHAR(255)</text><line style="stroke:#181818;stroke-width:1.0;" x1="376" x2="664" y1="1098.0466" y2="1098.0466"/><text fill="#000000" font-family="sans-serif" font-size="14" font-weight="bold" lengthAdjust="spacing" textLength="278" x="381" y="1115.5817">FK1 | ingredient_name: VARCHAR(255)</text><text fill="#000000" font-family="sans-serif" font-size="14" font-weight="bold" lengthAdjust="spacing" textLength="233" x="381" y="1132.07">FK2 | tool_name: VARCHAR(255)</text></g><!--class Step--><g id="elem_Step"><rect codeLine="57" fill="#F1F1F1" height="124.9297" id="Step" rx="2.5" ry="2.5" style="stroke:#181818;stroke-width:1.0;stroke-dasharray:7.0,7.0;" width="322" x="364" y="1199.02"/><text fill="#000000" font-family="sans-serif" font-size="14" lengthAdjust="spacing" textLength="30" x="510" y="1217.5552">Step</text><line style="stroke:#181818;stroke-width:0.5;" x1="365" x2="685" y1="1225.5083" y2="1225.5083"/><text fill="#000000" font-family="sans-serif" font-size="14" font-weight="bold" lengthAdjust="spacing" text-decoration="underline" textLength="279" x="370" y="1243.0434">PK , FK1 | recipe_name: VARCHAR(255)</text><text fill="#000000" font-family="sans-serif" font-size="14" font-weight="bold" lengthAdjust="spacing" text-decoration="underline" textLength="310" x="370" y="1259.5317">PK , FK2 | ingredient_name: VARCHAR(255)</text><text fill="#000000" font-family="sans-serif" font-size="14" font-weight="bold" lengthAdjust="spacing" text-decoration="underline" textLength="265" x="370" y="1276.02">PK , FK3 | tool_name: VARCHAR(255)</text><line style="stroke:#181818;stroke-width:1.0;" x1="365" x2="685" y1="1282.9731" y2="1282.9731"/><text fill="#000000" font-family="sans-serif" font-size="14" font-weight="bold" lengthAdjust="spacing" textLength="207" x="395" y="1300.5083">| description: VARCHAR(255)</text><text fill="#000000" font-family="sans-serif" font-size="14" font-weight="bold" lengthAdjust="spacing" textLength="87" x="395" y="1316.9966">| time: TIME</text></g><!--class RecipeIngredient--><g id="elem_RecipeIngredient"><rect codeLine="67" fill="#F1F1F1" height="91.9531" id="RecipeIngredient" rx="2.5" ry="2.5" style="stroke:#181818;stroke-width:1.0;stroke-dasharray:7.0,7.0;" width="322" x="7" y="1215.51"/><text fill="#000000" font-family="sans-serif" font-size="14" lengthAdjust="spacing" textLength="116" x="110" y="1234.0452">RecipeIngredient</text><line style="stroke:#181818;stroke-width:0.5;" x1="8" x2="328" y1="1241.9983" y2="1241.9983"/><text fill="#000000" font-family="sans-serif" font-size="14" font-weight="bold" lengthAdjust="spacing" text-decoration="underline" textLength="279" x="13" y="1259.5334">PK , FK1 | recipe_name: VARCHAR(255)</text><text fill="#000000" font-family="sans-serif" font-size="14" font-weight="bold" lengthAdjust="spacing" text-decoration="underline" textLength="310" x="13" y="1276.0217">PK , FK2 | ingredient_name: VARCHAR(255)</text><line style="stroke:#181818;stroke-width:1.0;" x1="8" x2="328" y1="1282.9748" y2="1282.9748"/><text fill="#000000" font-family="sans-serif" font-size="14" font-weight="bold" lengthAdjust="spacing" textLength="104" x="38" y="1300.51">| quantity: INT</text></g><!--class RecipeTool--><g id="elem_RecipeTool"><rect codeLine="75" fill="#F1F1F1" height="91.9531" id="RecipeTool" rx="2.5" ry="2.5" style="stroke:#181818;stroke-width:1.0;stroke-dasharray:7.0,7.0;" width="291" x="721.5" y="1215.51"/><text fill="#000000" font-family="sans-serif" font-size="14" lengthAdjust="spacing" textLength="76" x="829" y="1234.0452">RecipeTool</text><line style="stroke:#181818;stroke-width:0.5;" x1="722.5" x2="1011.5" y1="1241.9983" y2="1241.9983"/><text fill="#000000" font-family="sans-serif" font-size="14" font-weight="bold" lengthAdjust="spacing" text-decoration="underline" textLength="279" x="727.5" y="1259.5334">PK , FK1 | recipe_name: VARCHAR(255)</text><text fill="#000000" font-family="sans-serif" font-size="14" font-weight="bold" lengthAdjust="spacing" text-decoration="underline" textLength="265" x="727.5" y="1276.0217">PK , FK2 | tool_name: VARCHAR(255)</text><line style="stroke:#181818;stroke-width:1.0;" x1="722.5" x2="1011.5" y1="1282.9748" y2="1282.9748"/><text fill="#000000" font-family="sans-serif" font-size="14" font-weight="bold" lengthAdjust="spacing" textLength="104" x="752.5" y="1300.51">| quantity: INT</text></g><!--class Ingredient--><g id="elem_Ingredient"><rect codeLine="83" fill="#F1F1F1" height="174.3945" id="Ingredient" rx="2.5" ry="2.5" style="stroke:#181818;stroke-width:0.5;" width="276" x="30" y="812.67"/><text fill="#000000" font-family="sans-serif" font-size="14" lengthAdjust="spacing" textLength="71" x="132.5" y="831.2052">Ingredient</text><line style="stroke:#181818;stroke-width:0.5;" x1="31" x2="305" y1="839.1583" y2="839.1583"/><text fill="#000000" font-family="sans-serif" font-size="14" font-weight="bold" lengthAdjust="spacing" text-decoration="underline" textLength="189" x="36" y="856.6934">PK | name: VARCHAR(255)</text><line style="stroke:#181818;stroke-width:1.0;" x1="31" x2="305" y1="863.6466" y2="863.6466"/><text fill="#000000" font-family="sans-serif" font-size="14" font-weight="bold" lengthAdjust="spacing" textLength="264" x="36" y="881.1817">FK1 | supplier_email: VARCHAR(255)</text><text fill="#000000" font-family="sans-serif" font-size="14" font-weight="bold" lengthAdjust="spacing" textLength="101" x="61" y="897.67">| price: FLOAT</text><text fill="#000000" font-family="sans-serif" font-size="14" font-weight="bold" lengthAdjust="spacing" textLength="127" x="61" y="914.1583">| calories : FLOAT</text><text fill="#000000" font-family="sans-serif" font-size="14" font-weight="bold" lengthAdjust="spacing" textLength="104" x="61" y="930.6466">| in_stock: INT</text><text fill="#000000" font-family="sans-serif" font-size="14" font-weight="bold" lengthAdjust="spacing" textLength="192" x="61" y="947.1348">| allergens: VARCHAR(255)</text><text fill="#000000" font-family="sans-serif" font-size="14" font-weight="bold" lengthAdjust="spacing" textLength="180" x="61" y="963.6231">| country: VARCHAR(255)</text><text fill="#000000" font-family="sans-serif" font-size="14" font-weight="bold" lengthAdjust="spacing" textLength="172" x="61" y="980.1114">| region: VARCHAR(255)</text></g><!--class Tool--><g id="elem_Tool"><rect codeLine="96" fill="#F1F1F1" height="91.9531" id="Tool" rx="2.5" ry="2.5" style="stroke:#181818;stroke-width:0.5;" width="201" x="766.5" y="1047.07"/><text fill="#000000" font-family="sans-serif" font-size="14" lengthAdjust="spacing" textLength="31" x="851.5" y="1065.6052">Tool</text><line style="stroke:#181818;stroke-width:0.5;" x1="767.5" x2="966.5" y1="1073.5583" y2="1073.5583"/><text fill="#000000" font-family="sans-serif" font-size="14" font-weight="bold" lengthAdjust="spacing" text-decoration="underline" textLength="189" x="772.5" y="1091.0934">PK | name: VARCHAR(255)</text><line style="stroke:#181818;stroke-width:1.0;" x1="767.5" x2="966.5" y1="1098.0466" y2="1098.0466"/><text fill="#000000" font-family="sans-serif" font-size="14" font-weight="bold" lengthAdjust="spacing" textLength="101" x="797.5" y="1115.5817">| price: FLOAT</text><text fill="#000000" font-family="sans-serif" font-size="14" font-weight="bold" lengthAdjust="spacing" textLength="104" x="797.5" y="1132.07">| in_stock: INT</text></g><!--class SupplierCompany--><g id="elem_SupplierCompany"><rect codeLine="105" fill="#F1F1F1" height="141.418" id="SupplierCompany" rx="2.5" ry="2.5" style="stroke:#181818;stroke-width:0.5;" width="305" x="16.5" y="611.25"/><text fill="#000000" font-family="sans-serif" font-size="14" lengthAdjust="spacing" textLength="122" x="108" y="629.7852">SupplierCompany</text><line style="stroke:#181818;stroke-width:0.5;" x1="17.5" x2="320.5" y1="637.7383" y2="637.7383"/><text fill="#000000" font-family="sans-serif" font-size="14" font-weight="bold" lengthAdjust="spacing" text-decoration="underline" textLength="190" x="22.5" y="655.2734">PK | email: VARCHAR(255)</text><line style="stroke:#181818;stroke-width:1.0;" x1="17.5" x2="320.5" y1="662.2266" y2="662.2266"/><text fill="#000000" font-family="sans-serif" font-size="14" font-weight="bold" lengthAdjust="spacing" textLength="267" x="22.5" y="679.7617">FK1 | manager_email: VARCHAR(255)</text><text fill="#000000" font-family="sans-serif" font-size="14" font-weight="bold" lengthAdjust="spacing" textLength="165" x="47.5" y="696.25">| name: VARCHAR(255)</text><text fill="#000000" font-family="sans-serif" font-size="14" font-weight="bold" lengthAdjust="spacing" textLength="195" x="47.5" y="712.7383">| password: VARCHAR(255)</text><text fill="#000000" font-family="sans-serif" font-size="14" font-weight="bold" lengthAdjust="spacing" textLength="182" x="47.5" y="729.2266">| address: VARCHAR(255)</text><text fill="#000000" font-family="sans-serif" font-size="14" font-weight="bold" lengthAdjust="spacing" textLength="268" x="47.5" y="745.7148">| price_category: [Low, Medium, High]</text></g><!--class MangoChef--><g id="elem_MangoChef"><rect codeLine="116" fill="#F1F1F1" height="157.9063" id="MangoChef" rx="2.5" ry="2.5" style="stroke:#181818;stroke-width:0.5;" width="279" x="31.5" y="191.93"/><text fill="#000000" font-family="sans-serif" font-size="14" lengthAdjust="spacing" textLength="79" x="131.5" y="210.4652">MangoChef</text><line style="stroke:#181818;stroke-width:0.5;" x1="32.5" x2="309.5" y1="218.4183" y2="218.4183"/><text fill="#000000" font-family="sans-serif" font-size="14" font-weight="bold" lengthAdjust="spacing" text-decoration="underline" textLength="190" x="37.5" y="235.9534">PK | email: VARCHAR(255)</text><line style="stroke:#181818;stroke-width:1.0;" x1="32.5" x2="309.5" y1="242.9066" y2="242.9066"/><text fill="#000000" font-family="sans-serif" font-size="14" font-weight="bold" lengthAdjust="spacing" textLength="267" x="37.5" y="260.4417">FK1 | manager_email: VARCHAR(255)</text><text fill="#000000" font-family="sans-serif" font-size="14" font-weight="bold" lengthAdjust="spacing" textLength="203" x="62.5" y="276.93">| first_name: VARCHAR(255)</text><text fill="#000000" font-family="sans-serif" font-size="14" font-weight="bold" lengthAdjust="spacing" textLength="199" x="62.5" y="293.4183">| last_name: VARCHAR(255)</text><text fill="#000000" font-family="sans-serif" font-size="14" font-weight="bold" lengthAdjust="spacing" textLength="195" x="62.5" y="309.9066">| password: VARCHAR(255)</text><text fill="#000000" font-family="sans-serif" font-size="14" font-weight="bold" lengthAdjust="spacing" textLength="161" x="62.5" y="326.3948">| working_hours: TIME</text><text fill="#000000" font-family="sans-serif" font-size="14" font-weight="bold" lengthAdjust="spacing" textLength="109" x="62.5" y="342.8831">| salary: FLOAT</text></g><!--class MangoManager--><g id="elem_MangoManager"><rect codeLine="128" fill="#F1F1F1" height="141.418" id="MangoManager" rx="2.5" ry="2.5" style="stroke:#181818;stroke-width:0.5;" width="240" x="50" y="409.84"/><text fill="#000000" font-family="sans-serif" font-size="14" lengthAdjust="spacing" textLength="107" x="116.5" y="428.3752">MangoManager</text><line style="stroke:#181818;stroke-width:0.5;" x1="51" x2="289" y1="436.3283" y2="436.3283"/><text fill="#000000" font-family="sans-serif" font-size="14" font-weight="bold" lengthAdjust="spacing" text-decoration="underline" textLength="190" x="56" y="453.8634">PK | email: VARCHAR(255)</text><line style="stroke:#181818;stroke-width:1.0;" x1="51" x2="289" y1="460.8166" y2="460.8166"/><text fill="#000000" font-family="sans-serif" font-size="14" font-weight="bold" lengthAdjust="spacing" textLength="203" x="81" y="478.3517">| first_name: VARCHAR(255)</text><text fill="#000000" font-family="sans-serif" font-size="14" font-weight="bold" lengthAdjust="spacing" textLength="199" x="81" y="494.84">| last_name: VARCHAR(255)</text><text fill="#000000" font-family="sans-serif" font-size="14" font-weight="bold" lengthAdjust="spacing" textLength="195" x="81" y="511.3283">| password: VARCHAR(255)</text><text fill="#000000" font-family="sans-serif" font-size="14" font-weight="bold" lengthAdjust="spacing" textLength="161" x="81" y="527.8166">| working_hours: TIME</text><text fill="#000000" font-family="sans-serif" font-size="14" font-weight="bold" lengthAdjust="spacing" textLength="109" x="81" y="544.3048">| salary: FLOAT</text></g><!--link MangoManager to SupplierCompany--><g id="link_MangoManager_SupplierCompany"><path codeLine="139" d="M169.6083,559.5699 C169.5083,578.7599 169.5437,573.5702 169.4437,592.7702 " fill="none" id="MangoManager-SupplierCompany" style="stroke:#181818;stroke-width:1.0;"/><line style="stroke:#181818;stroke-width:1.0;" x1="165.6292" x2="173.6291" y1="555.5491" y2="555.5908"/><line style="stroke:#181818;stroke-width:1.0;" x1="165.6136" x2="173.6135" y1="558.5491" y2="558.5907"/><line style="stroke:#181818;stroke-width:1.0;" x1="169.6083" x2="169.65" y1="559.5699" y2="551.57"/><line style="stroke:#181818;stroke-width:1.0;" x1="169.3917" x2="175.3499" y1="602.7701" y2="610.8012"/><line style="stroke:#181818;stroke-width:1.0;" x1="169.3917" x2="163.3501" y1="602.7701" y2="610.7388"/><line style="stroke:#181818;stroke-width:1.0;" x1="169.3917" x2="169.35" y1="602.7701" y2="610.77"/><ellipse cx="169.4229" cy="596.7702" fill="none" rx="4" ry="4" style="stroke:#181818;stroke-width:1.0;"/></g><!--link MangoChef to MangoManager--><g id="link_MangoChef_MangoManager"><path codeLine="140" d="M170.5371,368.0998 C170.4471,387.6398 170.4677,382.4801 170.3777,401.5901 " fill="none" id="MangoChef-MangoManager" style="stroke:#181818;stroke-width:1.0;"/><line style="stroke:#181818;stroke-width:1.0;" x1="170.5832" x2="164.6201" y1="358.0999" y2="350.0724"/><line style="stroke:#181818;stroke-width:1.0;" x1="170.5832" x2="176.6199" y1="358.0999" y2="350.1276"/><line style="stroke:#181818;stroke-width:1.0;" x1="170.5832" x2="170.62" y1="358.0999" y2="350.1"/><ellipse cx="170.5555" cy="364.0999" fill="none" rx="4" ry="4" style="stroke:#181818;stroke-width:1.0;"/><line style="stroke:#181818;stroke-width:1.0;" x1="174.3588" x2="166.3589" y1="405.6089" y2="405.5712"/><line style="stroke:#181818;stroke-width:1.0;" x1="174.3729" x2="166.373" y1="402.6089" y2="402.5712"/><line style="stroke:#181818;stroke-width:1.0;" x1="170.3777" x2="170.34" y1="401.5901" y2="409.59"/></g><!--link MangoChef to Order--><g id="link_MangoChef_Order"><path codeLine="141" d="M318.74,270.88 C331,270.88 317.26,270.88 329.52,270.88 " fill="none" id="MangoChef-Order" style="stroke:#181818;stroke-width:1.0;"/><line style="stroke:#181818;stroke-width:1.0;" x1="314.74" x2="314.74" y1="274.88" y2="266.88"/><line style="stroke:#181818;stroke-width:1.0;" x1="317.74" x2="317.74" y1="274.88" y2="266.88"/><line style="stroke:#181818;stroke-width:1.0;" x1="318.74" x2="310.74" y1="270.88" y2="270.88"/><line style="stroke:#181818;stroke-width:1.0;" x1="339.52" x2="347.52" y1="270.88" y2="264.88"/><line style="stroke:#181818;stroke-width:1.0;" x1="339.52" x2="347.52" y1="270.88" y2="276.88"/><line style="stroke:#181818;stroke-width:1.0;" x1="339.52" x2="347.52" y1="270.88" y2="270.88"/><ellipse cx="333.52" cy="270.88" fill="none" rx="4" ry="4" style="stroke:#181818;stroke-width:1.0;"/></g><!--link SupplierCompany to Ingredient--><g id="link_SupplierCompany_Ingredient"><path codeLine="143" d="M168.642,761.0599 C168.552,780.0199 168.5721,774.7702 168.4821,794.5102 " fill="none" id="SupplierCompany-Ingredient" style="stroke:#181818;stroke-width:1.0;"/><line style="stroke:#181818;stroke-width:1.0;" x1="164.6611" x2="172.661" y1="757.041" y2="757.0789"/><line style="stroke:#181818;stroke-width:1.0;" x1="164.6468" x2="172.6467" y1="760.0409" y2="760.0789"/><line style="stroke:#181818;stroke-width:1.0;" x1="168.642" x2="168.68" y1="761.0599" y2="753.06"/><line style="stroke:#181818;stroke-width:1.0;" x1="168.4365" x2="174.3999" y1="804.5101" y2="812.5374"/><line style="stroke:#181818;stroke-width:1.0;" x1="168.4365" x2="162.4001" y1="804.5101" y2="812.4826"/><line style="stroke:#181818;stroke-width:1.0;" x1="168.4365" x2="168.4" y1="804.5101" y2="812.51"/><ellipse cx="168.4638" cy="798.5101" fill="none" rx="4" ry="4" style="stroke:#181818;stroke-width:1.0;"/></g><!--link Customer to Order--><g id="link_Customer_Order"><path codeLine="145" d="M520,140.2 C520,164.33 520,165.96 520,190.1 " fill="none" id="Customer-Order" style="stroke:#181818;stroke-width:1.0;"/><line style="stroke:#181818;stroke-width:1.0;" x1="516" x2="524" y1="136.2" y2="136.2"/><line style="stroke:#181818;stroke-width:1.0;" x1="516" x2="524" y1="139.2" y2="139.2"/><line style="stroke:#181818;stroke-width:1.0;" x1="520" x2="520" y1="140.2" y2="132.2"/><line style="stroke:#181818;stroke-width:1.0;" x1="520" x2="526" y1="200.1" y2="208.1"/><line style="stroke:#181818;stroke-width:1.0;" x1="520" x2="514" y1="200.1" y2="208.1"/><line style="stroke:#181818;stroke-width:1.0;" x1="520" x2="520" y1="200.1" y2="208.1"/><ellipse cx="520" cy="194.1" fill="none" rx="4" ry="4" style="stroke:#181818;stroke-width:1.0;"/></g><!--link Order to OrderDeal--><g id="link_Order_OrderDeal"><path codeLine="146" d="M520,341.63 C520,373.91 520,396.72 520,426.2 " fill="none" id="Order-OrderDeal" style="stroke:#181818;stroke-width:1.0;"/><line style="stroke:#181818;stroke-width:1.0;" x1="516" x2="524" y1="337.63" y2="337.63"/><line style="stroke:#181818;stroke-width:1.0;" x1="516" x2="524" y1="340.63" y2="340.63"/><line style="stroke:#181818;stroke-width:1.0;" x1="520" x2="520" y1="341.63" y2="333.63"/><line style="stroke:#181818;stroke-width:1.0;" x1="520" x2="526" y1="426.2" y2="434.2"/><line style="stroke:#181818;stroke-width:1.0;" x1="520" x2="514" y1="426.2" y2="434.2"/><line style="stroke:#181818;stroke-width:1.0;" x1="520" x2="520" y1="426.2" y2="434.2"/><line style="stroke:#181818;stroke-width:1.0;" x1="524" x2="516" y1="424.2" y2="424.2"/></g><!--link OrderDeal to Deal--><g id="link_OrderDeal_Deal"><path codeLine="147" d="M520,544.8 C520,572.15 520,581.38 520,611.26 " fill="none" id="OrderDeal-Deal" style="stroke:#181818;stroke-width:1.0;"/><line style="stroke:#181818;stroke-width:1.0;" x1="520" x2="514" y1="534.8" y2="526.8"/><line style="stroke:#181818;stroke-width:1.0;" x1="520" x2="526" y1="534.8" y2="526.8"/><line style="stroke:#181818;stroke-width:1.0;" x1="520" x2="520" y1="534.8" y2="526.8"/><ellipse cx="520" cy="540.8" fill="none" rx="4" ry="4" style="stroke:#181818;stroke-width:1.0;"/><line style="stroke:#181818;stroke-width:1.0;" x1="524" x2="516" y1="615.26" y2="615.26"/><line style="stroke:#181818;stroke-width:1.0;" x1="524" x2="516" y1="612.26" y2="612.26"/><line style="stroke:#181818;stroke-width:1.0;" x1="520" x2="520" y1="611.26" y2="619.26"/></g><!--link Recipe to RecipeIngredient--><g id="link_Recipe_RecipeIngredient"><path codeLine="149" d="M417.0479,1142.7199 C367.2679,1166.2599 321.0518,1188.1094 271.2418,1211.6694 " fill="none" id="Recipe-RecipeIngredient" style="stroke:#181818;stroke-width:1.0;"/><line style="stroke:#181818;stroke-width:1.0;" x1="418.954" x2="422.3739" y1="1137.3939" y2="1144.626"/><line style="stroke:#181818;stroke-width:1.0;" x1="416.2419" x2="419.6618" y1="1138.6764" y2="1145.9085"/><line style="stroke:#181818;stroke-width:1.0;" x1="417.0479" x2="424.28" y1="1142.7199" y2="1139.3"/><line style="stroke:#181818;stroke-width:1.0;" x1="271.2418" x2="266.5755" y1="1211.6694" y2="1220.5139"/><line style="stroke:#181818;stroke-width:1.0;" x1="271.2418" x2="261.4445" y1="1211.6694" y2="1209.6661"/><line style="stroke:#181818;stroke-width:1.0;" x1="271.2418" x2="264.01" y1="1211.6694" y2="1215.09"/><line style="stroke:#181818;stroke-width:1.0;" x1="274.7601" x2="271.3395" y1="1214.4301" y2="1207.1983"/></g><!--link Ingredient to RecipeIngredient--><g id="link_Ingredient_RecipeIngredient"><path codeLine="150" d="M168,995.46 C168,1067.17 168,1140.2 168,1197.18 " fill="none" id="Ingredient-RecipeIngredient" style="stroke:#181818;stroke-width:1.0;"/><line style="stroke:#181818;stroke-width:1.0;" x1="164" x2="172" y1="991.46" y2="991.46"/><line style="stroke:#181818;stroke-width:1.0;" x1="164" x2="172" y1="994.46" y2="994.46"/><line style="stroke:#181818;stroke-width:1.0;" x1="168" x2="168" y1="995.46" y2="987.46"/><line style="stroke:#181818;stroke-width:1.0;" x1="168" x2="174" y1="1207.18" y2="1215.18"/><line style="stroke:#181818;stroke-width:1.0;" x1="168" x2="162" y1="1207.18" y2="1215.18"/><line style="stroke:#181818;stroke-width:1.0;" x1="168" x2="168" y1="1207.18" y2="1215.18"/><ellipse cx="168" cy="1201.18" fill="none" rx="4" ry="4" style="stroke:#181818;stroke-width:1.0;"/></g><!--link Recipe to RecipeTool--><g id="link_Recipe_RecipeTool"><path codeLine="151" d="M621.573,1142.7602 C670.643,1166.3002 716.0371,1188.0697 765.1471,1211.6297 " fill="none" id="Recipe-RecipeTool" style="stroke:#181818;stroke-width:1.0;"/><line style="stroke:#181818;stroke-width:1.0;" x1="616.2364" x2="619.6966" y1="1144.6366" y2="1137.4236"/><line style="stroke:#181818;stroke-width:1.0;" x1="618.9412" x2="622.4015" y1="1145.9342" y2="1138.7212"/><line style="stroke:#181818;stroke-width:1.0;" x1="621.573" x2="614.36" y1="1142.7602" y2="1139.3"/><line style="stroke:#181818;stroke-width:1.0;" x1="765.1471" x2="774.9552" y1="1211.6297" y2="1209.6803"/><line style="stroke:#181818;stroke-width:1.0;" x1="765.1471" x2="769.7648" y1="1211.6297" y2="1220.4997"/><line style="stroke:#181818;stroke-width:1.0;" x1="765.1471" x2="772.36" y1="1211.6297" y2="1215.09"/><line style="stroke:#181818;stroke-width:1.0;" x1="765.074" x2="761.6137" y1="1207.1581" y2="1214.3711"/></g><!--link Tool to RecipeTool--><g id="link_Tool_RecipeTool"><path codeLine="152" d="M867,1147.09 C867,1170.67 867,1173.48 867,1197.12 " fill="none" id="Tool-RecipeTool" style="stroke:#181818;stroke-width:1.0;"/><line style="stroke:#181818;stroke-width:1.0;" x1="863" x2="871" y1="1143.09" y2="1143.09"/><line style="stroke:#181818;stroke-width:1.0;" x1="863" x2="871" y1="1146.09" y2="1146.09"/><line style="stroke:#181818;stroke-width:1.0;" x1="867" x2="867" y1="1147.09" y2="1139.09"/><line style="stroke:#181818;stroke-width:1.0;" x1="867" x2="873" y1="1207.12" y2="1215.12"/><line style="stroke:#181818;stroke-width:1.0;" x1="867" x2="861" y1="1207.12" y2="1215.12"/><line style="stroke:#181818;stroke-width:1.0;" x1="867" x2="867" y1="1207.12" y2="1215.12"/><ellipse cx="867" cy="1201.12" fill="none" rx="4" ry="4" style="stroke:#181818;stroke-width:1.0;"/></g><!--link Recipe to Step--><g id="link_Recipe_Step"><path codeLine="154" d="M521.5905,1147.0864 C522.1405,1165.3764 522.3109,1170.8136 522.9009,1190.5436 " fill="none" id="Recipe-Step" style="stroke:#181818;stroke-width:1.0;"/><line style="stroke:#181818;stroke-width:1.0;" x1="521.5905" x2="515.3527" y1="1147.0864" y2="1139.2703"/><line style="stroke:#181818;stroke-width:1.0;" x1="521.5905" x2="527.3473" y1="1147.0864" y2="1138.9097"/><line style="stroke:#181818;stroke-width:1.0;" x1="521.5905" x2="521.35" y1="1147.0864" y2="1139.09"/><line style="stroke:#181818;stroke-width:1.0;" x1="517.6524" x2="525.6488" y1="1149.2057" y2="1148.9653"/><line style="stroke:#181818;stroke-width:1.0;" x1="522.9009" x2="529.1373" y1="1190.5436" y2="1198.3607"/><line style="stroke:#181818;stroke-width:1.0;" x1="522.9009" x2="517.1427" y1="1190.5436" y2="1198.7193"/><line style="stroke:#181818;stroke-width:1.0;" x1="522.9009" x2="523.14" y1="1190.5436" y2="1198.54"/><line style="stroke:#181818;stroke-width:1.0;" x1="526.8393" x2="518.8429" y1="1188.4249" y2="1188.664"/></g><!--link Deal to RecipeDeal--><g id="link_Deal_RecipeDeal"><path codeLine="155" d="M520,752.83 C520,787.48 520,813.91 520,845.46 " fill="none" id="Deal-RecipeDeal" style="stroke:#181818;stroke-width:1.0;"/><line style="stroke:#181818;stroke-width:1.0;" x1="520" x2="514" y1="752.83" y2="744.83"/><line style="stroke:#181818;stroke-width:1.0;" x1="520" x2="526" y1="752.83" y2="744.83"/><line style="stroke:#181818;stroke-width:1.0;" x1="520" x2="520" y1="752.83" y2="744.83"/><line style="stroke:#181818;stroke-width:1.0;" x1="516" x2="524" y1="754.83" y2="754.83"/><line style="stroke:#181818;stroke-width:1.0;" x1="520" x2="526" y1="845.46" y2="853.46"/><line style="stroke:#181818;stroke-width:1.0;" x1="520" x2="514" y1="845.46" y2="853.46"/><line style="stroke:#181818;stroke-width:1.0;" x1="520" x2="520" y1="845.46" y2="853.46"/><line style="stroke:#181818;stroke-width:1.0;" x1="524" x2="516" y1="843.46" y2="843.46"/></g><!--link RecipeDeal to Recipe--><g id="link_RecipeDeal_Recipe"><path codeLine="156" d="M520,954.18 C520,984.54 520,1008.37 520,1038.73 " fill="none" id="RecipeDeal-Recipe" style="stroke:#181818;stroke-width:1.0;"/><line style="stroke:#181818;stroke-width:1.0;" x1="520" x2="514" y1="954.18" y2="946.18"/><line style="stroke:#181818;stroke-width:1.0;" x1="520" x2="526" y1="954.18" y2="946.18"/><line style="stroke:#181818;stroke-width:1.0;" x1="520" x2="520" y1="954.18" y2="946.18"/><line style="stroke:#181818;stroke-width:1.0;" x1="516" x2="524" y1="956.18" y2="956.18"/><line style="stroke:#181818;stroke-width:1.0;" x1="520" x2="526" y1="1038.73" y2="1046.73"/><line style="stroke:#181818;stroke-width:1.0;" x1="520" x2="514" y1="1038.73" y2="1046.73"/><line style="stroke:#181818;stroke-width:1.0;" x1="520" x2="520" y1="1038.73" y2="1046.73"/><line style="stroke:#181818;stroke-width:1.0;" x1="524" x2="516" y1="1036.73" y2="1036.73"/></g><!--SRC=[rLTTRzem57tFhx3KbqqA3-lK5pHDOcmTg6L55Eq5JP6Nt0OBnyviPuW1_xrs34cQBpxQRXeF176FhyyvllXU1YG0v1FXKt0SO8ge5UedKl48XBDsa7wjfSAA-DiFFp-ERz06GOG9xQBllKb_q9kykRowUflYEftqeM7ceO4FH4ZbCHn13Jg7KNmCAiPIBha8sbFn5QPgvGdC5bqq-oGu-mCkkYVqDmWNVUKq-E5iCw5t8cXKgOWXD1sEljnFUwDnIU7rpJkDyNT6UKsMfCXBZOmm2xddp-6X3RkNAeYlzxw-lUjDIo53Cf5QsXXOG5ZeeY53Oy530LAwgC-Zc8A2gihFW2cwk9W5MCvDk4wqQrLnW_Vgz5VWHbgWCpSTNwKaVYKu9TL5ms_J0aT3h-4W3gO-n3ex104-YU68KclsFnOGOw7vSLROgo1aakvnbDl84czdLLtpOfvRgizpNPUWW83eZ2ssMiwAyrhEEQ5x1V5hkdQOR7NT-nRcjMu787r1ObCXhKNMKZt3ZEU_TUF4IffgcrwJy4d7q4Grz_PvXI-JEAQa_kf7nzydFgPS492eFaoOfpkClx0gdiOmfI12OBArp7oUC2LMhHW1ORLQSylCkPvhrc47dahKksQtmSvXqzCmMpbh3Jzp7h57fdim3jkRzOxJommZE0XCLpxSQZmVAmYvEQNPBL-wQAGhD8bSD23XlDZ9HsQAwEiXukp9x5Gd_lu8fm4BVJLvSvu8kRiWIpCGfjXuPQkfvCx8Ill_HjSpT1S5eysc4_0bw_1rvPTJnYMnGUN5b7qoGQ5hJfcu7OwTKhBYFeMxrDd_PoZ6RORq7MNVRzRvGEhae-cMxy8REmiwjgSKbvMRerFfbZg9rgPJL43LFEcjLcXSsTeqi5-spPUPwSInNCkvKiRv2fEd67e4]--></g></svg>