<?xml version="1.0" encoding="us-ascii" standalone="no"?><svg xmlns="http://www.w3.org/2000/svg" xmlns:xlink="http://www.w3.org/1999/xlink" contentStyleType="text/css" height="1297px" preserveAspectRatio="none" style="width:1146px;height:1297px;background:#FFFFFF;" version="1.1" viewBox="0 0 1146 1297" width="1146px" zoomAndPan="magnify"><defs/><g><!--class Customer--><g id="elem_Customer"><rect codeLine="3" fill="#F1F1F1" height="141.418" id="Customer" rx="2.5" ry="2.5" style="stroke:#181818;stroke-width:0.5;" width="291" x="681" y="7"/><text fill="#000000" font-family="sans-serif" font-size="14" lengthAdjust="spacing" textLength="67" x="793" y="25.5352">Customer</text><line style="stroke:#181818;stroke-width:0.5;" x1="682" x2="971" y1="33.4883" y2="33.4883"/><text fill="#000000" font-family="sans-serif" font-size="14" font-weight="bold" lengthAdjust="spacing" text-decoration="underline" textLength="190" x="687" y="51.0234">PK | email: VARCHAR(255)</text><line style="stroke:#181818;stroke-width:1.0;" x1="682" x2="971" y1="57.9766" y2="57.9766"/><text fill="#000000" font-family="sans-serif" font-size="14" font-weight="bold" lengthAdjust="spacing" textLength="203" x="712" y="75.5117">| first_name: VARCHAR(255)</text><text fill="#000000" font-family="sans-serif" font-size="14" font-weight="bold" lengthAdjust="spacing" textLength="199" x="712" y="92">| last_name: VARCHAR(255)</text><text fill="#000000" font-family="sans-serif" font-size="14" font-weight="bold" lengthAdjust="spacing" textLength="195" x="712" y="108.4883">| password: VARCHAR(255)</text><text fill="#000000" font-family="sans-serif" font-size="14" font-weight="bold" lengthAdjust="spacing" textLength="129" x="712" y="124.9766">| order_count: INT</text><text fill="#000000" font-family="sans-serif" font-size="14" font-weight="bold" lengthAdjust="spacing" textLength="254" x="712" y="141.4648">| loyalty_rank: [Bronze, Silver, Gold]</text></g><!--class Order--><g id="elem_Order"><rect codeLine="14" fill="#F1F1F1" height="124.9297" id="Order" rx="2.5" ry="2.5" style="stroke:#181818;stroke-width:1.0;stroke-dasharray:7.0,7.0;" width="344" x="654.5" y="216.66"/><text fill="#000000" font-family="sans-serif" font-size="14" lengthAdjust="spacing" textLength="40" x="806.5" y="235.1952">Order</text><line style="stroke:#181818;stroke-width:0.5;" x1="655.5" x2="997.5" y1="243.1483" y2="243.1483"/><text fill="#000000" font-family="sans-serif" font-size="14" font-weight="bold" lengthAdjust="spacing" text-decoration="underline" textLength="161" x="660.5" y="260.6834">PK | time: TIMESTAMP</text><line style="stroke:#181818;stroke-width:1.0;" x1="655.5" x2="997.5" y1="267.6366" y2="267.6366"/><text fill="#000000" font-family="sans-serif" font-size="14" font-weight="bold" lengthAdjust="spacing" textLength="272" x="660.5" y="285.1717">FK1 | customer_email: VARCHAR(255)</text><text fill="#000000" font-family="sans-serif" font-size="14" font-weight="bold" lengthAdjust="spacing" textLength="291" x="660.5" y="301.66">FK2 | mango_chef_email: VARCHAR(255)</text><text fill="#000000" font-family="sans-serif" font-size="14" font-weight="bold" lengthAdjust="spacing" textLength="101" x="685.5" y="318.1483">| price: FLOAT</text><text fill="#000000" font-family="sans-serif" font-size="14" font-weight="bold" lengthAdjust="spacing" textLength="307" x="685.5" y="334.6366">| status: [Pending, In Progress, Completed]</text></g><!--class OrderMeal--><g id="elem_OrderMeal"><rect codeLine="24" fill="#F1F1F1" height="91.9531" id="OrderMeal" rx="2.5" ry="2.5" style="stroke:#181818;stroke-width:1.0;stroke-dasharray:7.0,7.0;" width="278" x="693.5" y="409.83"/><text fill="#000000" font-family="sans-serif" font-size="14" lengthAdjust="spacing" textLength="72" x="796.5" y="428.3652">OrderMeal</text><line style="stroke:#181818;stroke-width:0.5;" x1="694.5" x2="970.5" y1="436.3183" y2="436.3183"/><text fill="#000000" font-family="sans-serif" font-size="14" font-weight="bold" lengthAdjust="spacing" text-decoration="underline" textLength="241" x="699.5" y="453.8534">PK ,FK1 | order_time: TIMESTAMP</text><text fill="#000000" font-family="sans-serif" font-size="14" font-weight="bold" lengthAdjust="spacing" text-decoration="underline" textLength="266" x="699.5" y="470.3417">PK ,FK2 | meal_name: VARCHAR(255)</text><line style="stroke:#181818;stroke-width:1.0;" x1="694.5" x2="970.5" y1="477.2948" y2="477.2948"/><text fill="#000000" font-family="sans-serif" font-size="14" font-weight="bold" lengthAdjust="spacing" textLength="104" x="724.5" y="494.83">| quantity: INT</text></g><!--class Meal--><g id="elem_Meal"><rect codeLine="32" fill="#F1F1F1" height="124.9297" id="Meal" rx="2.5" ry="2.5" style="stroke:#181818;stroke-width:1.0;stroke-dasharray:7.0,7.0;" width="259" x="714" y="570.03"/><text fill="#000000" font-family="sans-serif" font-size="14" lengthAdjust="spacing" textLength="32" x="827.5" y="588.5652">Meal</text><line style="stroke:#181818;stroke-width:0.5;" x1="715" x2="972" y1="596.5183" y2="596.5183"/><text fill="#000000" font-family="sans-serif" font-size="14" font-weight="bold" lengthAdjust="spacing" text-decoration="underline" textLength="189" x="720" y="614.0534">PK | name: VARCHAR(255)</text><line style="stroke:#181818;stroke-width:1.0;" x1="715" x2="972" y1="621.0066" y2="621.0066"/><text fill="#000000" font-family="sans-serif" font-size="14" font-weight="bold" lengthAdjust="spacing" textLength="214" x="720" y="638.5417">FK1 | order_time: TIMESTAMP</text><text fill="#000000" font-family="sans-serif" font-size="14" font-weight="bold" lengthAdjust="spacing" textLength="247" x="720" y="655.03">FK2 | recipe_name: VARCHAR(255)</text><text fill="#000000" font-family="sans-serif" font-size="14" font-weight="bold" lengthAdjust="spacing" textLength="101" x="745" y="671.5183">| price: FLOAT</text><text fill="#000000" font-family="sans-serif" font-size="14" font-weight="bold" lengthAdjust="spacing" textLength="177" x="745" y="688.0066">| preparation_time: TIME</text></g><!--class RecipeMeal--><g id="elem_RecipeMeal"><rect codeLine="42" fill="#F1F1F1" height="91.9531" id="RecipeMeal" rx="2.5" ry="2.5" style="stroke:#181818;stroke-width:1.0;stroke-dasharray:7.0,7.0;" width="291" x="704" y="779.69"/><text fill="#000000" font-family="sans-serif" font-size="14" lengthAdjust="spacing" textLength="77" x="811" y="798.2252">RecipeMeal</text><line style="stroke:#181818;stroke-width:0.5;" x1="705" x2="994" y1="806.1783" y2="806.1783"/><text fill="#000000" font-family="sans-serif" font-size="14" font-weight="bold" lengthAdjust="spacing" text-decoration="underline" textLength="279" x="710" y="823.7134">PK , FK1 | recipe_name: VARCHAR(255)</text><text fill="#000000" font-family="sans-serif" font-size="14" font-weight="bold" lengthAdjust="spacing" text-decoration="underline" textLength="271" x="710" y="840.2017">PK , FK2 | meal_name: VARCHAR(255)</text><line style="stroke:#181818;stroke-width:1.0;" x1="705" x2="994" y1="847.1548" y2="847.1548"/><text fill="#000000" font-family="sans-serif" font-size="14" font-weight="bold" lengthAdjust="spacing" textLength="104" x="735" y="864.69">| quantity: INT</text></g><!--class Recipe--><g id="elem_Recipe"><rect codeLine="50" fill="#F1F1F1" height="108.4414" id="Recipe" rx="2.5" ry="2.5" style="stroke:#181818;stroke-width:1.0;stroke-dasharray:7.0,7.0;" width="290" x="522.5" y="972.87"/><text fill="#000000" font-family="sans-serif" font-size="14" lengthAdjust="spacing" textLength="45" x="645" y="991.4052">Recipe</text><line style="stroke:#181818;stroke-width:0.5;" x1="523.5" x2="811.5" y1="999.3583" y2="999.3583"/><text fill="#000000" font-family="sans-serif" font-size="14" font-weight="bold" lengthAdjust="spacing" text-decoration="underline" textLength="189" x="528.5" y="1016.8934">PK | name: VARCHAR(255)</text><line style="stroke:#181818;stroke-width:1.0;" x1="523.5" x2="811.5" y1="1023.8466" y2="1023.8466"/><text fill="#000000" font-family="sans-serif" font-size="14" font-weight="bold" lengthAdjust="spacing" textLength="278" x="528.5" y="1041.3817">FK1 | ingredient_name: VARCHAR(255)</text><text fill="#000000" font-family="sans-serif" font-size="14" font-weight="bold" lengthAdjust="spacing" textLength="233" x="528.5" y="1057.87">FK2 | tool_name: VARCHAR(255)</text><text fill="#000000" font-family="sans-serif" font-size="14" font-weight="bold" lengthAdjust="spacing" textLength="87" x="553.5" y="1074.3583">| time: TIME</text></g><!--class Step--><g id="elem_Step"><rect codeLine="59" fill="#F1F1F1" height="124.9297" id="Step" rx="2.5" ry="2.5" style="stroke:#181818;stroke-width:1.0;stroke-dasharray:7.0,7.0;" width="322" x="506.5" y="1166.04"/><text fill="#000000" font-family="sans-serif" font-size="14" lengthAdjust="spacing" textLength="30" x="652.5" y="1184.5752">Step</text><line style="stroke:#181818;stroke-width:0.5;" x1="507.5" x2="827.5" y1="1192.5283" y2="1192.5283"/><text fill="#000000" font-family="sans-serif" font-size="14" font-weight="bold" lengthAdjust="spacing" text-decoration="underline" textLength="279" x="512.5" y="1210.0634">PK , FK1 | recipe_name: VARCHAR(255)</text><text fill="#000000" font-family="sans-serif" font-size="14" font-weight="bold" lengthAdjust="spacing" text-decoration="underline" textLength="310" x="512.5" y="1226.5517">PK , FK2 | ingredient_name: VARCHAR(255)</text><text fill="#000000" font-family="sans-serif" font-size="14" font-weight="bold" lengthAdjust="spacing" text-decoration="underline" textLength="265" x="512.5" y="1243.04">PK , FK3 | tool_name: VARCHAR(255)</text><line style="stroke:#181818;stroke-width:1.0;" x1="507.5" x2="827.5" y1="1249.9931" y2="1249.9931"/><text fill="#000000" font-family="sans-serif" font-size="14" font-weight="bold" lengthAdjust="spacing" textLength="207" x="537.5" y="1267.5283">| description: VARCHAR(255)</text><text fill="#000000" font-family="sans-serif" font-size="14" font-weight="bold" lengthAdjust="spacing" textLength="87" x="537.5" y="1284.0166">| time: TIME</text></g><!--class RecipeIngredient--><g id="elem_RecipeIngredient"><rect codeLine="69" fill="#F1F1F1" height="91.9531" id="RecipeIngredient" rx="2.5" ry="2.5" style="stroke:#181818;stroke-width:1.0;stroke-dasharray:7.0,7.0;" width="322" x="346.5" y="779.69"/><text fill="#000000" font-family="sans-serif" font-size="14" lengthAdjust="spacing" textLength="116" x="449.5" y="798.2252">RecipeIngredient</text><line style="stroke:#181818;stroke-width:0.5;" x1="347.5" x2="667.5" y1="806.1783" y2="806.1783"/><text fill="#000000" font-family="sans-serif" font-size="14" font-weight="bold" lengthAdjust="spacing" text-decoration="underline" textLength="279" x="352.5" y="823.7134">PK , FK1 | recipe_name: VARCHAR(255)</text><text fill="#000000" font-family="sans-serif" font-size="14" font-weight="bold" lengthAdjust="spacing" text-decoration="underline" textLength="310" x="352.5" y="840.2017">PK , FK2 | ingredient_name: VARCHAR(255)</text><line style="stroke:#181818;stroke-width:1.0;" x1="347.5" x2="667.5" y1="847.1548" y2="847.1548"/><text fill="#000000" font-family="sans-serif" font-size="14" font-weight="bold" lengthAdjust="spacing" textLength="104" x="377.5" y="864.69">| quantity: INT</text></g><!--class RecipeTool--><g id="elem_RecipeTool"><rect codeLine="77" fill="#F1F1F1" height="91.9531" id="RecipeTool" rx="2.5" ry="2.5" style="stroke:#181818;stroke-width:1.0;stroke-dasharray:7.0,7.0;" width="291" x="848" y="981.11"/><text fill="#000000" font-family="sans-serif" font-size="14" lengthAdjust="spacing" textLength="76" x="955.5" y="999.6452">RecipeTool</text><line style="stroke:#181818;stroke-width:0.5;" x1="849" x2="1138" y1="1007.5983" y2="1007.5983"/><text fill="#000000" font-family="sans-serif" font-size="14" font-weight="bold" lengthAdjust="spacing" text-decoration="underline" textLength="279" x="854" y="1025.1334">PK , FK1 | recipe_name: VARCHAR(255)</text><text fill="#000000" font-family="sans-serif" font-size="14" font-weight="bold" lengthAdjust="spacing" text-decoration="underline" textLength="265" x="854" y="1041.6217">PK , FK2 | tool_name: VARCHAR(255)</text><line style="stroke:#181818;stroke-width:1.0;" x1="849" x2="1138" y1="1048.5748" y2="1048.5748"/><text fill="#000000" font-family="sans-serif" font-size="14" font-weight="bold" lengthAdjust="spacing" textLength="104" x="879" y="1066.11">| quantity: INT</text></g><!--class Ingredient--><g id="elem_Ingredient"><rect codeLine="85" fill="#F1F1F1" height="157.9063" id="Ingredient" rx="2.5" ry="2.5" style="stroke:#181818;stroke-width:0.5;" width="229" x="232" y="948.13"/><text fill="#000000" font-family="sans-serif" font-size="14" lengthAdjust="spacing" textLength="71" x="311" y="966.6652">Ingredient</text><line style="stroke:#181818;stroke-width:0.5;" x1="233" x2="460" y1="974.6183" y2="974.6183"/><text fill="#000000" font-family="sans-serif" font-size="14" font-weight="bold" lengthAdjust="spacing" text-decoration="underline" textLength="189" x="238" y="992.1534">PK | name: VARCHAR(255)</text><line style="stroke:#181818;stroke-width:1.0;" x1="233" x2="460" y1="999.1066" y2="999.1066"/><text fill="#000000" font-family="sans-serif" font-size="14" font-weight="bold" lengthAdjust="spacing" textLength="101" x="263" y="1016.6417">| price: FLOAT</text><text fill="#000000" font-family="sans-serif" font-size="14" font-weight="bold" lengthAdjust="spacing" textLength="127" x="263" y="1033.13">| calories : FLOAT</text><text fill="#000000" font-family="sans-serif" font-size="14" font-weight="bold" lengthAdjust="spacing" textLength="139" x="263" y="1049.6183">| availability: BOOL</text><text fill="#000000" font-family="sans-serif" font-size="14" font-weight="bold" lengthAdjust="spacing" textLength="192" x="263" y="1066.1066">| allergens: VARCHAR(255)</text><text fill="#000000" font-family="sans-serif" font-size="14" font-weight="bold" lengthAdjust="spacing" textLength="180" x="263" y="1082.5948">| country: VARCHAR(255)</text><text fill="#000000" font-family="sans-serif" font-size="14" font-weight="bold" lengthAdjust="spacing" textLength="172" x="263" y="1099.0831">| region: VARCHAR(255)</text></g><!--class Tool--><g id="elem_Tool"><rect codeLine="97" fill="#F1F1F1" height="91.9531" id="Tool" rx="2.5" ry="2.5" style="stroke:#181818;stroke-width:0.5;" width="201" x="893" y="1182.53"/><text fill="#000000" font-family="sans-serif" font-size="14" lengthAdjust="spacing" textLength="31" x="978" y="1201.0652">Tool</text><line style="stroke:#181818;stroke-width:0.5;" x1="894" x2="1093" y1="1209.0183" y2="1209.0183"/><text fill="#000000" font-family="sans-serif" font-size="14" font-weight="bold" lengthAdjust="spacing" text-decoration="underline" textLength="189" x="899" y="1226.5534">PK | name: VARCHAR(255)</text><line style="stroke:#181818;stroke-width:1.0;" x1="894" x2="1093" y1="1233.5066" y2="1233.5066"/><text fill="#000000" font-family="sans-serif" font-size="14" font-weight="bold" lengthAdjust="spacing" textLength="101" x="924" y="1251.0417">| price: FLOAT</text><text fill="#000000" font-family="sans-serif" font-size="14" font-weight="bold" lengthAdjust="spacing" textLength="139" x="924" y="1267.53">| availability: BOOL</text></g><!--class SupplierCompany--><g id="elem_SupplierCompany"><rect codeLine="106" fill="#F1F1F1" height="124.9297" id="SupplierCompany" rx="2.5" ry="2.5" style="stroke:#181818;stroke-width:0.5;" width="305" x="7" y="763.2"/><text fill="#000000" font-family="sans-serif" font-size="14" lengthAdjust="spacing" textLength="122" x="98.5" y="781.7352">SupplierCompany</text><line style="stroke:#181818;stroke-width:0.5;" x1="8" x2="311" y1="789.6883" y2="789.6883"/><text fill="#000000" font-family="sans-serif" font-size="14" font-weight="bold" lengthAdjust="spacing" text-decoration="underline" textLength="190" x="13" y="807.2234">PK | email: VARCHAR(255)</text><line style="stroke:#181818;stroke-width:1.0;" x1="8" x2="311" y1="814.1766" y2="814.1766"/><text fill="#000000" font-family="sans-serif" font-size="14" font-weight="bold" lengthAdjust="spacing" textLength="165" x="38" y="831.7117">| name: VARCHAR(255)</text><text fill="#000000" font-family="sans-serif" font-size="14" font-weight="bold" lengthAdjust="spacing" textLength="195" x="38" y="848.2">| password: VARCHAR(255)</text><text fill="#000000" font-family="sans-serif" font-size="14" font-weight="bold" lengthAdjust="spacing" textLength="182" x="38" y="864.6883">| address: VARCHAR(255)</text><text fill="#000000" font-family="sans-serif" font-size="14" font-weight="bold" lengthAdjust="spacing" textLength="268" x="38" y="881.1766">| price_category: [Low, Medium, High]</text></g><!--class MangoChef--><g id="elem_MangoChef"><rect codeLine="116" fill="#F1F1F1" height="141.418" id="MangoChef" rx="2.5" ry="2.5" style="stroke:#181818;stroke-width:0.5;" width="240" x="288.5" y="208.42"/><text fill="#000000" font-family="sans-serif" font-size="14" lengthAdjust="spacing" textLength="79" x="369" y="226.9552">MangoChef</text><line style="stroke:#181818;stroke-width:0.5;" x1="289.5" x2="527.5" y1="234.9083" y2="234.9083"/><text fill="#000000" font-family="sans-serif" font-size="14" font-weight="bold" lengthAdjust="spacing" text-decoration="underline" textLength="190" x="294.5" y="252.4434">PK | email: VARCHAR(255)</text><line style="stroke:#181818;stroke-width:1.0;" x1="289.5" x2="527.5" y1="259.3966" y2="259.3966"/><text fill="#000000" font-family="sans-serif" font-size="14" font-weight="bold" lengthAdjust="spacing" textLength="203" x="319.5" y="276.9317">| first_name: VARCHAR(255)</text><text fill="#000000" font-family="sans-serif" font-size="14" font-weight="bold" lengthAdjust="spacing" textLength="199" x="319.5" y="293.42">| last_name: VARCHAR(255)</text><text fill="#000000" font-family="sans-serif" font-size="14" font-weight="bold" lengthAdjust="spacing" textLength="195" x="319.5" y="309.9083">| password: VARCHAR(255)</text><text fill="#000000" font-family="sans-serif" font-size="14" font-weight="bold" lengthAdjust="spacing" textLength="161" x="319.5" y="326.3966">| working_hours: TIME</text><text fill="#000000" font-family="sans-serif" font-size="14" font-weight="bold" lengthAdjust="spacing" textLength="109" x="319.5" y="342.8848">| salary: FLOAT</text></g><!--class MangoManager--><g id="elem_MangoManager"><rect codeLine="127" fill="#F1F1F1" height="141.418" id="MangoManager" rx="2.5" ry="2.5" style="stroke:#181818;stroke-width:0.5;" width="240" x="62.5" y="561.79"/><text fill="#000000" font-family="sans-serif" font-size="14" lengthAdjust="spacing" textLength="107" x="129" y="580.3252">MangoManager</text><line style="stroke:#181818;stroke-width:0.5;" x1="63.5" x2="301.5" y1="588.2783" y2="588.2783"/><text fill="#000000" font-family="sans-serif" font-size="14" font-weight="bold" lengthAdjust="spacing" text-decoration="underline" textLength="190" x="68.5" y="605.8134">PK | email: VARCHAR(255)</text><line style="stroke:#181818;stroke-width:1.0;" x1="63.5" x2="301.5" y1="612.7666" y2="612.7666"/><text fill="#000000" font-family="sans-serif" font-size="14" font-weight="bold" lengthAdjust="spacing" textLength="203" x="93.5" y="630.3017">| first_name: VARCHAR(255)</text><text fill="#000000" font-family="sans-serif" font-size="14" font-weight="bold" lengthAdjust="spacing" textLength="199" x="93.5" y="646.79">| last_name: VARCHAR(255)</text><text fill="#000000" font-family="sans-serif" font-size="14" font-weight="bold" lengthAdjust="spacing" textLength="195" x="93.5" y="663.2783">| password: VARCHAR(255)</text><text fill="#000000" font-family="sans-serif" font-size="14" font-weight="bold" lengthAdjust="spacing" textLength="161" x="93.5" y="679.7666">| working_hours: TIME</text><text fill="#000000" font-family="sans-serif" font-size="14" font-weight="bold" lengthAdjust="spacing" textLength="109" x="93.5" y="696.2548">| salary: FLOAT</text></g><!--link MangoManager to SupplierCompany--><g id="link_MangoManager_SupplierCompany"><path codeLine="138" d="M173.1115,711.5424 C170.7715,730.9324 170.1745,735.9571 167.9045,754.8471 " fill="none" id="MangoManager-SupplierCompany" style="stroke:#181818;stroke-width:1.0;stroke-dasharray:7.0,7.0;"/><line style="stroke:#181818;stroke-width:1.0;" x1="169.6196" x2="177.5619" y1="707.0919" y2="708.0504"/><line style="stroke:#181818;stroke-width:1.0;" x1="169.2601" x2="177.2025" y1="710.0703" y2="711.0288"/><line style="stroke:#181818;stroke-width:1.0;" x1="173.1115" x2="174.07" y1="711.5424" y2="703.6"/><line style="stroke:#181818;stroke-width:1.0;" x1="167.9045" x2="172.9071" y1="754.8471" y2="763.5059"/><line style="stroke:#181818;stroke-width:1.0;" x1="167.9045" x2="160.9929" y1="754.8471" y2="762.0741"/><line style="stroke:#181818;stroke-width:1.0;" x1="167.9045" x2="166.95" y1="754.8471" y2="762.79"/><line style="stroke:#181818;stroke-width:1.0;" x1="172.1145" x2="164.1717" y1="753.3387" y2="752.3842"/></g><!--link MangoChef to MangoManager--><g id="link_MangoChef_MangoManager"><path codeLine="139" d="M359.2523,356.6884 C319.7923,418.0384 271.348,493.3718 231.858,554.7618 " fill="none" id="MangoChef-MangoManager" style="stroke:#181818;stroke-width:1.0;stroke-dasharray:7.0,7.0;"/><line style="stroke:#181818;stroke-width:1.0;" x1="359.2523" x2="358.5337" y1="356.6884" y2="346.7142"/><line style="stroke:#181818;stroke-width:1.0;" x1="359.2523" x2="368.6263" y1="356.6884" y2="353.2058"/><line style="stroke:#181818;stroke-width:1.0;" x1="359.2523" x2="363.58" y1="356.6884" y2="349.96"/><line style="stroke:#181818;stroke-width:1.0;" x1="354.8062" x2="361.5346" y1="356.2067" y2="360.5343"/><line style="stroke:#181818;stroke-width:1.0;" x1="233.0581" x2="226.3299" y1="560.2899" y2="555.9619"/><line style="stroke:#181818;stroke-width:1.0;" x1="234.6811" x2="227.9529" y1="557.7668" y2="553.4388"/><line style="stroke:#181818;stroke-width:1.0;" x1="231.858" x2="227.53" y1="554.7618" y2="561.49"/></g><!--link MangoChef to Order--><g id="link_MangoChef_Order"><path codeLine="140" d="M536.92,279.12 C578.67,279.12 594.42,279.12 636.17,279.12 " fill="none" id="MangoChef-Order" style="stroke:#181818;stroke-width:1.0;"/><line style="stroke:#181818;stroke-width:1.0;" x1="532.92" x2="532.92" y1="283.12" y2="275.12"/><line style="stroke:#181818;stroke-width:1.0;" x1="535.92" x2="535.92" y1="283.12" y2="275.12"/><line style="stroke:#181818;stroke-width:1.0;" x1="536.92" x2="528.92" y1="279.12" y2="279.12"/><line style="stroke:#181818;stroke-width:1.0;" x1="646.17" x2="654.17" y1="279.12" y2="273.12"/><line style="stroke:#181818;stroke-width:1.0;" x1="646.17" x2="654.17" y1="279.12" y2="285.12"/><line style="stroke:#181818;stroke-width:1.0;" x1="646.17" x2="654.17" y1="279.12" y2="279.12"/><ellipse cx="640.17" cy="279.12" fill="none" rx="4" ry="4" style="stroke:#181818;stroke-width:1.0;"/></g><!--link SupplierCompany to Ingredient--><g id="link_SupplierCompany_Ingredient"><path codeLine="142" d="M222.8619,894.2359 C240.4519,912.9959 249.0783,922.1939 267.5483,941.8939 " fill="none" id="SupplierCompany-Ingredient" style="stroke:#181818;stroke-width:1.0;stroke-dasharray:7.0,7.0;"/><line style="stroke:#181818;stroke-width:1.0;" x1="217.208" x2="223.0439" y1="894.0539" y2="888.582"/><line style="stroke:#181818;stroke-width:1.0;" x1="219.26" x2="225.0959" y1="896.2424" y2="890.7704"/><line style="stroke:#181818;stroke-width:1.0;" x1="222.8619" x2="217.39" y1="894.2359" y2="888.4"/><line style="stroke:#181818;stroke-width:1.0;" x1="267.5483" x2="277.3971" y1="941.8939" y2="943.6262"/><line style="stroke:#181818;stroke-width:1.0;" x1="267.5483" x2="268.6429" y1="941.8939" y2="951.8338"/><line style="stroke:#181818;stroke-width:1.0;" x1="267.5483" x2="273.02" y1="941.8939" y2="947.73"/><line style="stroke:#181818;stroke-width:1.0;" x1="269.0984" x2="263.2623" y1="937.699" y2="943.1707"/></g><!--link Customer to Order--><g id="link_Customer_Order"><path codeLine="144" d="M826.5,156.73 C826.5,178.73 826.5,176.85 826.5,198.24 " fill="none" id="Customer-Order" style="stroke:#181818;stroke-width:1.0;stroke-dasharray:7.0,7.0;"/><line style="stroke:#181818;stroke-width:1.0;" x1="822.5" x2="830.5" y1="152.73" y2="152.73"/><line style="stroke:#181818;stroke-width:1.0;" x1="822.5" x2="830.5" y1="155.73" y2="155.73"/><line style="stroke:#181818;stroke-width:1.0;" x1="826.5" x2="826.5" y1="156.73" y2="148.73"/><line style="stroke:#181818;stroke-width:1.0;" x1="826.5" x2="832.5" y1="208.24" y2="216.24"/><line style="stroke:#181818;stroke-width:1.0;" x1="826.5" x2="820.5" y1="208.24" y2="216.24"/><line style="stroke:#181818;stroke-width:1.0;" x1="826.5" x2="826.5" y1="208.24" y2="216.24"/><ellipse cx="826.5" cy="202.24" fill="none" rx="4" ry="4" style="stroke:#181818;stroke-width:1.0;"/></g><!--link Order to OrderMeal--><g id="link_Order_OrderMeal"><path codeLine="145" d="M829.2331,359.6996 C829.9931,381.9996 829.9551,380.7747 830.6651,401.4247 " fill="none" id="Order-OrderMeal" style="stroke:#181818;stroke-width:1.0;"/><line style="stroke:#181818;stroke-width:1.0;" x1="828.8925" x2="822.6235" y1="349.7054" y2="341.9144"/><line style="stroke:#181818;stroke-width:1.0;" x1="828.8925" x2="834.6165" y1="349.7054" y2="341.5056"/><line style="stroke:#181818;stroke-width:1.0;" x1="828.8925" x2="828.62" y1="349.7054" y2="341.71"/><ellipse cx="829.0969" cy="355.7019" fill="none" rx="4" ry="4" style="stroke:#181818;stroke-width:1.0;"/><line style="stroke:#181818;stroke-width:1.0;" x1="830.6651" x2="836.9365" y1="401.4247" y2="409.2138"/><line style="stroke:#181818;stroke-width:1.0;" x1="830.6651" x2="824.9435" y1="401.4247" y2="409.6262"/><line style="stroke:#181818;stroke-width:1.0;" x1="830.6651" x2="830.94" y1="401.4247" y2="409.42"/><line style="stroke:#181818;stroke-width:1.0;" x1="834.594" x2="826.5987" y1="399.2885" y2="399.5634"/></g><!--link OrderMeal to Meal--><g id="link_OrderMeal_Meal"><path codeLine="146" d="M836.4926,520.2143 C837.7926,540.8343 837.7178,539.5958 839.1178,561.8558 " fill="none" id="OrderMeal-Meal" style="stroke:#181818;stroke-width:1.0;"/><line style="stroke:#181818;stroke-width:1.0;" x1="835.8634" x2="829.3719" y1="510.2341" y2="502.6275"/><line style="stroke:#181818;stroke-width:1.0;" x1="835.8634" x2="841.3481" y1="510.2341" y2="501.8725"/><line style="stroke:#181818;stroke-width:1.0;" x1="835.8634" x2="835.36" y1="510.2341" y2="502.25"/><ellipse cx="836.2409" cy="516.2223" fill="none" rx="4" ry="4" style="stroke:#181818;stroke-width:1.0;"/><line style="stroke:#181818;stroke-width:1.0;" x1="839.1178" x2="845.6082" y1="561.8558" y2="569.4634"/><line style="stroke:#181818;stroke-width:1.0;" x1="839.1178" x2="833.6318" y1="561.8558" y2="570.2166"/><line style="stroke:#181818;stroke-width:1.0;" x1="839.1178" x2="839.62" y1="561.8558" y2="569.84"/><line style="stroke:#181818;stroke-width:1.0;" x1="842.9844" x2="835.0002" y1="559.6086" y2="560.1108"/></g><!--link RecipeIngredient to Recipe--><g id="link_RecipeIngredient_Recipe"><path codeLine="148" d="M548.816,878.1602 C572.786,908.0402 588.0348,927.0509 613.2548,958.4809 " fill="none" id="RecipeIngredient-Recipe" style="stroke:#181818;stroke-width:1.0;"/><line style="stroke:#181818;stroke-width:1.0;" x1="548.816" x2="539.1298" y1="878.1602" y2="875.6745"/><line style="stroke:#181818;stroke-width:1.0;" x1="548.816" x2="548.4902" y1="878.1602" y2="868.1655"/><line style="stroke:#181818;stroke-width:1.0;" x1="548.816" x2="543.81" y1="878.1602" y2="871.92"/><line style="stroke:#181818;stroke-width:1.0;" x1="546.9473" x2="553.1876" y1="882.2233" y2="877.2173"/><line style="stroke:#181818;stroke-width:1.0;" x1="619.5132" x2="629.1997" y1="966.2804" y2="968.7649"/><line style="stroke:#181818;stroke-width:1.0;" x1="619.5132" x2="619.8403" y1="966.2804" y2="976.2751"/><line style="stroke:#181818;stroke-width:1.0;" x1="619.5132" x2="624.52" y1="966.2804" y2="972.52"/><ellipse cx="615.7582" cy="961.6007" fill="none" rx="4" ry="4" style="stroke:#181818;stroke-width:1.0;"/></g><!--link RecipeIngredient to Ingredient--><g id="link_RecipeIngredient_Ingredient"><path codeLine="149" d="M459.6639,885.9261 C441.5739,908.3361 435.5359,915.8058 414.7759,941.5158 " fill="none" id="RecipeIngredient-Ingredient" style="stroke:#181818;stroke-width:1.0;"/><line style="stroke:#181818;stroke-width:1.0;" x1="465.945" x2="466.3013" y1="878.1449" y2="868.1513"/><line style="stroke:#181818;stroke-width:1.0;" x1="465.945" x2="475.6387" y1="878.1449" y2="875.6887"/><line style="stroke:#181818;stroke-width:1.0;" x1="465.945" x2="470.97" y1="878.1449" y2="871.92"/><ellipse cx="462.1763" cy="882.8136" fill="none" rx="4" ry="4" style="stroke:#181818;stroke-width:1.0;"/><line style="stroke:#181818;stroke-width:1.0;" x1="414.7759" x2="414.4182" y1="941.5158" y2="951.5094"/><line style="stroke:#181818;stroke-width:1.0;" x1="414.7759" x2="405.0818" y1="941.5158" y2="943.9706"/><line style="stroke:#181818;stroke-width:1.0;" x1="414.7759" x2="409.75" y1="941.5158" y2="947.74"/><line style="stroke:#181818;stroke-width:1.0;" x1="419.1444" x2="412.9202" y1="942.4727" y2="937.4468"/></g><!--link Recipe to RecipeTool--><g id="link_Recipe_RecipeTool"><path codeLine="150" d="M830.99,1027.09 C842.51,1027.09 828.02,1027.09 839.54,1027.09 " fill="none" id="Recipe-RecipeTool" style="stroke:#181818;stroke-width:1.0;"/><line style="stroke:#181818;stroke-width:1.0;" x1="820.99" x2="812.99" y1="1027.09" y2="1033.09"/><line style="stroke:#181818;stroke-width:1.0;" x1="820.99" x2="812.99" y1="1027.09" y2="1021.09"/><line style="stroke:#181818;stroke-width:1.0;" x1="820.99" x2="812.99" y1="1027.09" y2="1027.09"/><ellipse cx="826.99" cy="1027.09" fill="none" rx="4" ry="4" style="stroke:#181818;stroke-width:1.0;"/><line style="stroke:#181818;stroke-width:1.0;" x1="839.54" x2="847.54" y1="1027.09" y2="1021.09"/><line style="stroke:#181818;stroke-width:1.0;" x1="839.54" x2="847.54" y1="1027.09" y2="1033.09"/><line style="stroke:#181818;stroke-width:1.0;" x1="839.54" x2="847.54" y1="1027.09" y2="1027.09"/><line style="stroke:#181818;stroke-width:1.0;" x1="837.54" x2="837.54" y1="1023.09" y2="1031.09"/></g><!--link RecipeTool to Tool--><g id="link_RecipeTool_Tool"><path codeLine="151" d="M993.5,1091.34 C993.5,1123.86 993.5,1141.53 993.5,1174.09 " fill="none" id="RecipeTool-Tool" style="stroke:#181818;stroke-width:1.0;"/><line style="stroke:#181818;stroke-width:1.0;" x1="993.5" x2="987.5" y1="1081.34" y2="1073.34"/><line style="stroke:#181818;stroke-width:1.0;" x1="993.5" x2="999.5" y1="1081.34" y2="1073.34"/><line style="stroke:#181818;stroke-width:1.0;" x1="993.5" x2="993.5" y1="1081.34" y2="1073.34"/><ellipse cx="993.5" cy="1087.34" fill="none" rx="4" ry="4" style="stroke:#181818;stroke-width:1.0;"/><line style="stroke:#181818;stroke-width:1.0;" x1="993.5" x2="999.5" y1="1174.09" y2="1182.09"/><line style="stroke:#181818;stroke-width:1.0;" x1="993.5" x2="987.5" y1="1174.09" y2="1182.09"/><line style="stroke:#181818;stroke-width:1.0;" x1="993.5" x2="993.5" y1="1174.09" y2="1182.09"/><line style="stroke:#181818;stroke-width:1.0;" x1="997.5" x2="989.5" y1="1172.09" y2="1172.09"/></g><!--link Recipe to Step--><g id="link_Recipe_Step"><path codeLine="153" d="M667.5,1089.79 C667.5,1115.63 667.5,1130.75 667.5,1157.59 " fill="none" id="Recipe-Step" style="stroke:#181818;stroke-width:1.0;"/><line style="stroke:#181818;stroke-width:1.0;" x1="667.5" x2="661.5" y1="1089.79" y2="1081.79"/><line style="stroke:#181818;stroke-width:1.0;" x1="667.5" x2="673.5" y1="1089.79" y2="1081.79"/><line style="stroke:#181818;stroke-width:1.0;" x1="667.5" x2="667.5" y1="1089.79" y2="1081.79"/><line style="stroke:#181818;stroke-width:1.0;" x1="663.5" x2="671.5" y1="1091.79" y2="1091.79"/><line style="stroke:#181818;stroke-width:1.0;" x1="667.5" x2="673.5" y1="1157.59" y2="1165.59"/><line style="stroke:#181818;stroke-width:1.0;" x1="667.5" x2="661.5" y1="1157.59" y2="1165.59"/><line style="stroke:#181818;stroke-width:1.0;" x1="667.5" x2="667.5" y1="1157.59" y2="1165.59"/><line style="stroke:#181818;stroke-width:1.0;" x1="671.5" x2="663.5" y1="1155.59" y2="1155.59"/></g><!--link Meal to RecipeMeal--><g id="link_Meal_RecipeMeal"><path codeLine="154" d="M845.6912,703.2961 C846.5512,730.6761 847.0386,746.314 847.8286,771.444 " fill="none" id="Meal-RecipeMeal" style="stroke:#181818;stroke-width:1.0;"/><line style="stroke:#181818;stroke-width:1.0;" x1="845.6912" x2="839.443" y1="703.2961" y2="695.4884"/><line style="stroke:#181818;stroke-width:1.0;" x1="845.6912" x2="851.437" y1="703.2961" y2="695.1116"/><line style="stroke:#181818;stroke-width:1.0;" x1="845.6912" x2="845.44" y1="703.2961" y2="695.3"/><line style="stroke:#181818;stroke-width:1.0;" x1="841.7559" x2="849.752" y1="705.4206" y2="705.1695"/><line style="stroke:#181818;stroke-width:1.0;" x1="847.8286" x2="854.077" y1="771.444" y2="779.2515"/><line style="stroke:#181818;stroke-width:1.0;" x1="847.8286" x2="842.083" y1="771.444" y2="779.6285"/><line style="stroke:#181818;stroke-width:1.0;" x1="847.8286" x2="848.08" y1="771.444" y2="779.44"/><line style="stroke:#181818;stroke-width:1.0;" x1="851.7638" x2="843.7678" y1="769.3193" y2="769.5706"/></g><!--link RecipeMeal to Recipe--><g id="link_RecipeMeal_Recipe"><path codeLine="155" d="M802.8071,877.829 C775.5371,907.709 750.4745,935.1824 721.7745,966.6124 " fill="none" id="RecipeMeal-Recipe" style="stroke:#181818;stroke-width:1.0;"/><line style="stroke:#181818;stroke-width:1.0;" x1="802.8071" x2="803.7682" y1="877.829" y2="867.8753"/><line style="stroke:#181818;stroke-width:1.0;" x1="802.8071" x2="812.6318" y1="877.829" y2="875.9647"/><line style="stroke:#181818;stroke-width:1.0;" x1="802.8071" x2="808.2" y1="877.829" y2="871.92"/><line style="stroke:#181818;stroke-width:1.0;" x1="798.5044" x2="804.4134" y1="876.6099" y2="882.0027"/><line style="stroke:#181818;stroke-width:1.0;" x1="721.7745" x2="720.8107" y1="966.6124" y2="976.5659"/><line style="stroke:#181818;stroke-width:1.0;" x1="721.7745" x2="711.9493" y1="966.6124" y2="968.4741"/><line style="stroke:#181818;stroke-width:1.0;" x1="721.7745" x2="716.38" y1="966.6124" y2="972.52"/><line style="stroke:#181818;stroke-width:1.0;" x1="726.0769" x2="720.1693" y1="967.8327" y2="962.4383"/></g><!--SRC=[rLTHRzem47xthx3KbqqAIElKbsgQHD6wefQ1MhGND4LkSWIhnivifnM3_lUUav9a2H3eG5Dv8CZtdNtVTnVVSSL3e07NWG12G5fkvxIR6AjceCc2KFmiZ6MM1yzVxhyEh-cImennSKv_TcwxLvtR3wTdPnzJNAkLFX3c7WYSS6siBzaCrg0Bc62xe69cp9FIuLOGsa7xWKgaFQUz7wFgIMhEX9txcic7Spg-q4h-0O_USV48sgFVbGX_aUTSXu7RZPwSZ4Dcfe2czNfOxa8VzVhVxaQT_h2YnUNr9yG4hvBwcyHBaQU8d34PAJ-OmcGRTYMAvW6UVNapw5IvkY0JWoo784Ck8u_s91rg5MamngDTDOi5MAWJxWCJJQIzZ5Kczph-DNXA3NVUbEXQyVnEM1fKbiSYnbt2MzB6Kve8vFdG4F0OTgZFpQc8DSHCOtnAbiugSRfDpzX9U9e5lZsgki_1vCz2FLW2i30rX1mttw9m5hvLIZIdOQs-TnRYOohRpABkzxc1KYqZ8PX0yzXLqVuAP6dhvN7-NpNshBOHodJCWFTAmwPG2stV-aOqNoG14qfpC7IzcJrYls3tNAJXNGm6DrM04A0Za6Ph0QNjKy-tOZH4zJein70PEvuCQtZYqVdBdiInuA1TXsDoJXReyszpp65c4nQ6hlKsDn4_O1OYvJ8mlb5F7hQya2SpZrxnQ5fkrtqtAdHnKdX_Wne27l2UyASgqURrjghCBqmm9q5M01NI-CMYzpYWle5tcJ1TBjkXUfAjvQ9MvrLS4hVR22kA9F-5rfR6Mh8jjSXcFa8gkvKFAjriPFNN8BVdEsJ3CdrMhPLVFasIOguicLCBUPqdS5t0nBhrQgiYjTvLsgG6SyQCMxvLUXcLEad9FJNbdijytGqC90kuM2ocj9974lzjUW40]--></g></svg>