<?xml version="1.0" encoding="us-ascii" standalone="no"?><svg xmlns="http://www.w3.org/2000/svg" xmlns:xlink="http://www.w3.org/1999/xlink" contentStyleType="text/css" height="1297px" preserveAspectRatio="none" style="width:1328px;height:1297px;background:#FFFFFF;" version="1.1" viewBox="0 0 1328 1297" width="1328px" zoomAndPan="magnify"><defs/><g><!--class Customer--><g id="elem_Customer"><rect codeLine="3" fill="#F1F1F1" height="141.418" id="Customer" rx="2.5" ry="2.5" style="stroke:#181818;stroke-width:0.5;" width="291" x="681" y="7"/><text fill="#000000" font-family="sans-serif" font-size="14" lengthAdjust="spacing" textLength="67" x="793" y="25.5352">Customer</text><line style="stroke:#181818;stroke-width:0.5;" x1="682" x2="971" y1="33.4883" y2="33.4883"/><text fill="#000000" font-family="sans-serif" font-size="14" font-weight="bold" lengthAdjust="spacing" text-decoration="underline" textLength="190" x="687" y="51.0234">PK | email: VARCHAR(255)</text><line style="stroke:#181818;stroke-width:1.0;" x1="682" x2="971" y1="57.9766" y2="57.9766"/><text fill="#000000" font-family="sans-serif" font-size="14" font-weight="bold" lengthAdjust="spacing" textLength="203" x="712" y="75.5117">| first_name: VARCHAR(255)</text><text fill="#000000" font-family="sans-serif" font-size="14" font-weight="bold" lengthAdjust="spacing" textLength="199" x="712" y="92">| last_name: VARCHAR(255)</text><text fill="#000000" font-family="sans-serif" font-size="14" font-weight="bold" lengthAdjust="spacing" textLength="195" x="712" y="108.4883">| password: VARCHAR(255)</text><text fill="#000000" font-family="sans-serif" font-size="14" font-weight="bold" lengthAdjust="spacing" textLength="129" x="712" y="124.9766">| order_count: INT</text><text fill="#000000" font-family="sans-serif" font-size="14" font-weight="bold" lengthAdjust="spacing" textLength="254" x="712" y="141.4648">| loyalty_rank: [Bronze, Silver, Gold]</text></g><!--class Order--><g id="elem_Order"><rect codeLine="14" fill="#F1F1F1" height="124.9297" id="Order" rx="2.5" ry="2.5" style="stroke:#181818;stroke-width:1.0;stroke-dasharray:7.0,7.0;" width="344" x="654.5" y="216.66"/><text fill="#000000" font-family="sans-serif" font-size="14" lengthAdjust="spacing" textLength="40" x="806.5" y="235.1952">Order</text><line style="stroke:#181818;stroke-width:0.5;" x1="655.5" x2="997.5" y1="243.1483" y2="243.1483"/><text fill="#000000" font-family="sans-serif" font-size="14" font-weight="bold" lengthAdjust="spacing" text-decoration="underline" textLength="161" x="660.5" y="260.6834">PK | time: TIMESTAMP</text><line style="stroke:#181818;stroke-width:1.0;" x1="655.5" x2="997.5" y1="267.6366" y2="267.6366"/><text fill="#000000" font-family="sans-serif" font-size="14" font-weight="bold" lengthAdjust="spacing" textLength="272" x="660.5" y="285.1717">FK1 | customer_email: VARCHAR(255)</text><text fill="#000000" font-family="sans-serif" font-size="14" font-weight="bold" lengthAdjust="spacing" textLength="291" x="660.5" y="301.66">FK2 | mango_chef_email: VARCHAR(255)</text><text fill="#000000" font-family="sans-serif" font-size="14" font-weight="bold" lengthAdjust="spacing" textLength="101" x="685.5" y="318.1483">| price: FLOAT</text><text fill="#000000" font-family="sans-serif" font-size="14" font-weight="bold" lengthAdjust="spacing" textLength="307" x="685.5" y="334.6366">| status: [Pending, In Progress, Completed]</text></g><!--class OrderMeal--><g id="elem_OrderMeal"><rect codeLine="24" fill="#F1F1F1" height="91.9531" id="OrderMeal" rx="2.5" ry="2.5" style="stroke:#181818;stroke-width:1.0;stroke-dasharray:7.0,7.0;" width="278" x="693.5" y="409.83"/><text fill="#000000" font-family="sans-serif" font-size="14" lengthAdjust="spacing" textLength="72" x="796.5" y="428.3652">OrderMeal</text><line style="stroke:#181818;stroke-width:0.5;" x1="694.5" x2="970.5" y1="436.3183" y2="436.3183"/><text fill="#000000" font-family="sans-serif" font-size="14" font-weight="bold" lengthAdjust="spacing" text-decoration="underline" textLength="241" x="699.5" y="453.8534">PK ,FK1 | order_time: TIMESTAMP</text><text fill="#000000" font-family="sans-serif" font-size="14" font-weight="bold" lengthAdjust="spacing" text-decoration="underline" textLength="266" x="699.5" y="470.3417">PK ,FK2 | meal_name: VARCHAR(255)</text><line style="stroke:#181818;stroke-width:1.0;" x1="694.5" x2="970.5" y1="477.2948" y2="477.2948"/><text fill="#000000" font-family="sans-serif" font-size="14" font-weight="bold" lengthAdjust="spacing" textLength="104" x="724.5" y="494.83">| quantity: INT</text></g><!--class Meal--><g id="elem_Meal"><rect codeLine="32" fill="#F1F1F1" height="124.9297" id="Meal" rx="2.5" ry="2.5" style="stroke:#181818;stroke-width:1.0;stroke-dasharray:7.0,7.0;" width="259" x="714" y="570.03"/><text fill="#000000" font-family="sans-serif" font-size="14" lengthAdjust="spacing" textLength="32" x="827.5" y="588.5652">Meal</text><line style="stroke:#181818;stroke-width:0.5;" x1="715" x2="972" y1="596.5183" y2="596.5183"/><text fill="#000000" font-family="sans-serif" font-size="14" font-weight="bold" lengthAdjust="spacing" text-decoration="underline" textLength="189" x="720" y="614.0534">PK | name: VARCHAR(255)</text><line style="stroke:#181818;stroke-width:1.0;" x1="715" x2="972" y1="621.0066" y2="621.0066"/><text fill="#000000" font-family="sans-serif" font-size="14" font-weight="bold" lengthAdjust="spacing" textLength="214" x="720" y="638.5417">FK1 | order_time: TIMESTAMP</text><text fill="#000000" font-family="sans-serif" font-size="14" font-weight="bold" lengthAdjust="spacing" textLength="247" x="720" y="655.03">FK2 | recipe_name: VARCHAR(255)</text><text fill="#000000" font-family="sans-serif" font-size="14" font-weight="bold" lengthAdjust="spacing" textLength="101" x="745" y="671.5183">| price: FLOAT</text><text fill="#000000" font-family="sans-serif" font-size="14" font-weight="bold" lengthAdjust="spacing" textLength="177" x="745" y="688.0066">| preparation_time: TIME</text></g><!--class RecipeMeal--><g id="elem_RecipeMeal"><rect codeLine="42" fill="#F1F1F1" height="91.9531" id="RecipeMeal" rx="2.5" ry="2.5" style="stroke:#181818;stroke-width:1.0;stroke-dasharray:7.0,7.0;" width="291" x="704" y="779.69"/><text fill="#000000" font-family="sans-serif" font-size="14" lengthAdjust="spacing" textLength="77" x="811" y="798.2252">RecipeMeal</text><line style="stroke:#181818;stroke-width:0.5;" x1="705" x2="994" y1="806.1783" y2="806.1783"/><text fill="#000000" font-family="sans-serif" font-size="14" font-weight="bold" lengthAdjust="spacing" text-decoration="underline" textLength="279" x="710" y="823.7134">PK , FK1 | recipe_name: VARCHAR(255)</text><text fill="#000000" font-family="sans-serif" font-size="14" font-weight="bold" lengthAdjust="spacing" text-decoration="underline" textLength="271" x="710" y="840.2017">PK , FK2 | meal_name: VARCHAR(255)</text><line style="stroke:#181818;stroke-width:1.0;" x1="705" x2="994" y1="847.1548" y2="847.1548"/><text fill="#000000" font-family="sans-serif" font-size="14" font-weight="bold" lengthAdjust="spacing" textLength="104" x="735" y="864.69">| quantity: INT</text></g><!--class Recipe--><g id="elem_Recipe"><rect codeLine="50" fill="#F1F1F1" height="108.4414" id="Recipe" rx="2.5" ry="2.5" style="stroke:#181818;stroke-width:1.0;stroke-dasharray:7.0,7.0;" width="290" x="704.5" y="972.87"/><text fill="#000000" font-family="sans-serif" font-size="14" lengthAdjust="spacing" textLength="45" x="827" y="991.4052">Recipe</text><line style="stroke:#181818;stroke-width:0.5;" x1="705.5" x2="993.5" y1="999.3583" y2="999.3583"/><text fill="#000000" font-family="sans-serif" font-size="14" font-weight="bold" lengthAdjust="spacing" text-decoration="underline" textLength="189" x="710.5" y="1016.8934">PK | name: VARCHAR(255)</text><line style="stroke:#181818;stroke-width:1.0;" x1="705.5" x2="993.5" y1="1023.8466" y2="1023.8466"/><text fill="#000000" font-family="sans-serif" font-size="14" font-weight="bold" lengthAdjust="spacing" textLength="278" x="710.5" y="1041.3817">FK1 | ingredient_name: VARCHAR(255)</text><text fill="#000000" font-family="sans-serif" font-size="14" font-weight="bold" lengthAdjust="spacing" textLength="233" x="710.5" y="1057.87">FK2 | tool_name: VARCHAR(255)</text><text fill="#000000" font-family="sans-serif" font-size="14" font-weight="bold" lengthAdjust="spacing" textLength="87" x="735.5" y="1074.3583">| time: TIME</text></g><!--class Step--><g id="elem_Step"><rect codeLine="59" fill="#F1F1F1" height="124.9297" id="Step" rx="2.5" ry="2.5" style="stroke:#181818;stroke-width:1.0;stroke-dasharray:7.0,7.0;" width="322" x="688.5" y="1166.04"/><text fill="#000000" font-family="sans-serif" font-size="14" lengthAdjust="spacing" textLength="30" x="834.5" y="1184.5752">Step</text><line style="stroke:#181818;stroke-width:0.5;" x1="689.5" x2="1009.5" y1="1192.5283" y2="1192.5283"/><text fill="#000000" font-family="sans-serif" font-size="14" font-weight="bold" lengthAdjust="spacing" text-decoration="underline" textLength="279" x="694.5" y="1210.0634">PK , FK1 | recipe_name: VARCHAR(255)</text><text fill="#000000" font-family="sans-serif" font-size="14" font-weight="bold" lengthAdjust="spacing" text-decoration="underline" textLength="310" x="694.5" y="1226.5517">PK , FK2 | ingredient_name: VARCHAR(255)</text><text fill="#000000" font-family="sans-serif" font-size="14" font-weight="bold" lengthAdjust="spacing" text-decoration="underline" textLength="265" x="694.5" y="1243.04">PK , FK3 | tool_name: VARCHAR(255)</text><line style="stroke:#181818;stroke-width:1.0;" x1="689.5" x2="1009.5" y1="1249.9931" y2="1249.9931"/><text fill="#000000" font-family="sans-serif" font-size="14" font-weight="bold" lengthAdjust="spacing" textLength="207" x="719.5" y="1267.5283">| description: VARCHAR(255)</text><text fill="#000000" font-family="sans-serif" font-size="14" font-weight="bold" lengthAdjust="spacing" textLength="87" x="719.5" y="1284.0166">| time: TIME</text></g><!--class RecipeIngredient--><g id="elem_RecipeIngredient"><rect codeLine="69" fill="#F1F1F1" height="91.9531" id="RecipeIngredient" rx="2.5" ry="2.5" style="stroke:#181818;stroke-width:1.0;stroke-dasharray:7.0,7.0;" width="322" x="346.5" y="779.69"/><text fill="#000000" font-family="sans-serif" font-size="14" lengthAdjust="spacing" textLength="116" x="449.5" y="798.2252">RecipeIngredient</text><line style="stroke:#181818;stroke-width:0.5;" x1="347.5" x2="667.5" y1="806.1783" y2="806.1783"/><text fill="#000000" font-family="sans-serif" font-size="14" font-weight="bold" lengthAdjust="spacing" text-decoration="underline" textLength="279" x="352.5" y="823.7134">PK , FK1 | recipe_name: VARCHAR(255)</text><text fill="#000000" font-family="sans-serif" font-size="14" font-weight="bold" lengthAdjust="spacing" text-decoration="underline" textLength="310" x="352.5" y="840.2017">PK , FK2 | ingredient_name: VARCHAR(255)</text><line style="stroke:#181818;stroke-width:1.0;" x1="347.5" x2="667.5" y1="847.1548" y2="847.1548"/><text fill="#000000" font-family="sans-serif" font-size="14" font-weight="bold" lengthAdjust="spacing" textLength="104" x="377.5" y="864.69">| quantity: INT</text></g><!--class RecipeTool--><g id="elem_RecipeTool"><rect codeLine="77" fill="#F1F1F1" height="91.9531" id="RecipeTool" rx="2.5" ry="2.5" style="stroke:#181818;stroke-width:1.0;stroke-dasharray:7.0,7.0;" width="291" x="1030" y="779.69"/><text fill="#000000" font-family="sans-serif" font-size="14" lengthAdjust="spacing" textLength="76" x="1137.5" y="798.2252">RecipeTool</text><line style="stroke:#181818;stroke-width:0.5;" x1="1031" x2="1320" y1="806.1783" y2="806.1783"/><text fill="#000000" font-family="sans-serif" font-size="14" font-weight="bold" lengthAdjust="spacing" text-decoration="underline" textLength="279" x="1036" y="823.7134">PK , FK1 | recipe_name: VARCHAR(255)</text><text fill="#000000" font-family="sans-serif" font-size="14" font-weight="bold" lengthAdjust="spacing" text-decoration="underline" textLength="265" x="1036" y="840.2017">PK , FK2 | tool_name: VARCHAR(255)</text><line style="stroke:#181818;stroke-width:1.0;" x1="1031" x2="1320" y1="847.1548" y2="847.1548"/><text fill="#000000" font-family="sans-serif" font-size="14" font-weight="bold" lengthAdjust="spacing" textLength="104" x="1061" y="864.69">| quantity: INT</text></g><!--class Ingredient--><g id="elem_Ingredient"><rect codeLine="85" fill="#F1F1F1" height="157.9063" id="Ingredient" rx="2.5" ry="2.5" style="stroke:#181818;stroke-width:0.5;" width="229" x="219" y="948.13"/><text fill="#000000" font-family="sans-serif" font-size="14" lengthAdjust="spacing" textLength="71" x="298" y="966.6652">Ingredient</text><line style="stroke:#181818;stroke-width:0.5;" x1="220" x2="447" y1="974.6183" y2="974.6183"/><text fill="#000000" font-family="sans-serif" font-size="14" font-weight="bold" lengthAdjust="spacing" text-decoration="underline" textLength="189" x="225" y="992.1534">PK | name: VARCHAR(255)</text><line style="stroke:#181818;stroke-width:1.0;" x1="220" x2="447" y1="999.1066" y2="999.1066"/><text fill="#000000" font-family="sans-serif" font-size="14" font-weight="bold" lengthAdjust="spacing" textLength="101" x="250" y="1016.6417">| price: FLOAT</text><text fill="#000000" font-family="sans-serif" font-size="14" font-weight="bold" lengthAdjust="spacing" textLength="127" x="250" y="1033.13">| calories : FLOAT</text><text fill="#000000" font-family="sans-serif" font-size="14" font-weight="bold" lengthAdjust="spacing" textLength="139" x="250" y="1049.6183">| availability: BOOL</text><text fill="#000000" font-family="sans-serif" font-size="14" font-weight="bold" lengthAdjust="spacing" textLength="192" x="250" y="1066.1066">| allergens: VARCHAR(255)</text><text fill="#000000" font-family="sans-serif" font-size="14" font-weight="bold" lengthAdjust="spacing" textLength="180" x="250" y="1082.5948">| country: VARCHAR(255)</text><text fill="#000000" font-family="sans-serif" font-size="14" font-weight="bold" lengthAdjust="spacing" textLength="172" x="250" y="1099.0831">| region: VARCHAR(255)</text></g><!--class Tool--><g id="elem_Tool"><rect codeLine="97" fill="#F1F1F1" height="91.9531" id="Tool" rx="2.5" ry="2.5" style="stroke:#181818;stroke-width:0.5;" width="201" x="1075" y="981.11"/><text fill="#000000" font-family="sans-serif" font-size="14" lengthAdjust="spacing" textLength="31" x="1160" y="999.6452">Tool</text><line style="stroke:#181818;stroke-width:0.5;" x1="1076" x2="1275" y1="1007.5983" y2="1007.5983"/><text fill="#000000" font-family="sans-serif" font-size="14" font-weight="bold" lengthAdjust="spacing" text-decoration="underline" textLength="189" x="1081" y="1025.1334">PK | name: VARCHAR(255)</text><line style="stroke:#181818;stroke-width:1.0;" x1="1076" x2="1275" y1="1032.0866" y2="1032.0866"/><text fill="#000000" font-family="sans-serif" font-size="14" font-weight="bold" lengthAdjust="spacing" textLength="101" x="1106" y="1049.6217">| price: FLOAT</text><text fill="#000000" font-family="sans-serif" font-size="14" font-weight="bold" lengthAdjust="spacing" textLength="139" x="1106" y="1066.11">| availability: BOOL</text></g><!--class SupplierCompany--><g id="elem_SupplierCompany"><rect codeLine="106" fill="#F1F1F1" height="124.9297" id="SupplierCompany" rx="2.5" ry="2.5" style="stroke:#181818;stroke-width:0.5;" width="305" x="7" y="763.2"/><text fill="#000000" font-family="sans-serif" font-size="14" lengthAdjust="spacing" textLength="122" x="98.5" y="781.7352">SupplierCompany</text><line style="stroke:#181818;stroke-width:0.5;" x1="8" x2="311" y1="789.6883" y2="789.6883"/><text fill="#000000" font-family="sans-serif" font-size="14" font-weight="bold" lengthAdjust="spacing" text-decoration="underline" textLength="190" x="13" y="807.2234">PK | email: VARCHAR(255)</text><line style="stroke:#181818;stroke-width:1.0;" x1="8" x2="311" y1="814.1766" y2="814.1766"/><text fill="#000000" font-family="sans-serif" font-size="14" font-weight="bold" lengthAdjust="spacing" textLength="165" x="38" y="831.7117">| name: VARCHAR(255)</text><text fill="#000000" font-family="sans-serif" font-size="14" font-weight="bold" lengthAdjust="spacing" textLength="195" x="38" y="848.2">| password: VARCHAR(255)</text><text fill="#000000" font-family="sans-serif" font-size="14" font-weight="bold" lengthAdjust="spacing" textLength="182" x="38" y="864.6883">| address: VARCHAR(255)</text><text fill="#000000" font-family="sans-serif" font-size="14" font-weight="bold" lengthAdjust="spacing" textLength="268" x="38" y="881.1766">| price_category: [Low, Medium, High]</text></g><!--class MangoChef--><g id="elem_MangoChef"><rect codeLine="116" fill="#F1F1F1" height="141.418" id="MangoChef" rx="2.5" ry="2.5" style="stroke:#181818;stroke-width:0.5;" width="240" x="288.5" y="208.42"/><text fill="#000000" font-family="sans-serif" font-size="14" lengthAdjust="spacing" textLength="79" x="369" y="226.9552">MangoChef</text><line style="stroke:#181818;stroke-width:0.5;" x1="289.5" x2="527.5" y1="234.9083" y2="234.9083"/><text fill="#000000" font-family="sans-serif" font-size="14" font-weight="bold" lengthAdjust="spacing" text-decoration="underline" textLength="190" x="294.5" y="252.4434">PK | email: VARCHAR(255)</text><line style="stroke:#181818;stroke-width:1.0;" x1="289.5" x2="527.5" y1="259.3966" y2="259.3966"/><text fill="#000000" font-family="sans-serif" font-size="14" font-weight="bold" lengthAdjust="spacing" textLength="203" x="319.5" y="276.9317">| first_name: VARCHAR(255)</text><text fill="#000000" font-family="sans-serif" font-size="14" font-weight="bold" lengthAdjust="spacing" textLength="199" x="319.5" y="293.42">| last_name: VARCHAR(255)</text><text fill="#000000" font-family="sans-serif" font-size="14" font-weight="bold" lengthAdjust="spacing" textLength="195" x="319.5" y="309.9083">| password: VARCHAR(255)</text><text fill="#000000" font-family="sans-serif" font-size="14" font-weight="bold" lengthAdjust="spacing" textLength="161" x="319.5" y="326.3966">| working_hours: TIME</text><text fill="#000000" font-family="sans-serif" font-size="14" font-weight="bold" lengthAdjust="spacing" textLength="109" x="319.5" y="342.8848">| salary: FLOAT</text></g><!--class MangoManager--><g id="elem_MangoManager"><rect codeLine="127" fill="#F1F1F1" height="141.418" id="MangoManager" rx="2.5" ry="2.5" style="stroke:#181818;stroke-width:0.5;" width="240" x="62.5" y="561.79"/><text fill="#000000" font-family="sans-serif" font-size="14" lengthAdjust="spacing" textLength="107" x="129" y="580.3252">MangoManager</text><line style="stroke:#181818;stroke-width:0.5;" x1="63.5" x2="301.5" y1="588.2783" y2="588.2783"/><text fill="#000000" font-family="sans-serif" font-size="14" font-weight="bold" lengthAdjust="spacing" text-decoration="underline" textLength="190" x="68.5" y="605.8134">PK | email: VARCHAR(255)</text><line style="stroke:#181818;stroke-width:1.0;" x1="63.5" x2="301.5" y1="612.7666" y2="612.7666"/><text fill="#000000" font-family="sans-serif" font-size="14" font-weight="bold" lengthAdjust="spacing" textLength="203" x="93.5" y="630.3017">| first_name: VARCHAR(255)</text><text fill="#000000" font-family="sans-serif" font-size="14" font-weight="bold" lengthAdjust="spacing" textLength="199" x="93.5" y="646.79">| last_name: VARCHAR(255)</text><text fill="#000000" font-family="sans-serif" font-size="14" font-weight="bold" lengthAdjust="spacing" textLength="195" x="93.5" y="663.2783">| password: VARCHAR(255)</text><text fill="#000000" font-family="sans-serif" font-size="14" font-weight="bold" lengthAdjust="spacing" textLength="161" x="93.5" y="679.7666">| working_hours: TIME</text><text fill="#000000" font-family="sans-serif" font-size="14" font-weight="bold" lengthAdjust="spacing" textLength="109" x="93.5" y="696.2548">| salary: FLOAT</text></g><!--link MangoManager to SupplierCompany--><g id="link_MangoManager_SupplierCompany"><path codeLine="138" d="M173.1115,711.5424 C170.7715,730.9324 170.1745,735.9571 167.9045,754.8471 " fill="none" id="MangoManager-SupplierCompany" style="stroke:#181818;stroke-width:1.0;stroke-dasharray:7.0,7.0;"/><line style="stroke:#181818;stroke-width:1.0;" x1="169.6196" x2="177.5619" y1="707.0919" y2="708.0504"/><line style="stroke:#181818;stroke-width:1.0;" x1="169.2601" x2="177.2025" y1="710.0703" y2="711.0288"/><line style="stroke:#181818;stroke-width:1.0;" x1="173.1115" x2="174.07" y1="711.5424" y2="703.6"/><line style="stroke:#181818;stroke-width:1.0;" x1="167.9045" x2="172.9071" y1="754.8471" y2="763.5059"/><line style="stroke:#181818;stroke-width:1.0;" x1="167.9045" x2="160.9929" y1="754.8471" y2="762.0741"/><line style="stroke:#181818;stroke-width:1.0;" x1="167.9045" x2="166.95" y1="754.8471" y2="762.79"/><line style="stroke:#181818;stroke-width:1.0;" x1="172.1145" x2="164.1717" y1="753.3387" y2="752.3842"/></g><!--link MangoChef to MangoManager--><g id="link_MangoChef_MangoManager"><path codeLine="139" d="M359.2523,356.6884 C319.7923,418.0384 271.348,493.3718 231.858,554.7618 " fill="none" id="MangoChef-MangoManager" style="stroke:#181818;stroke-width:1.0;stroke-dasharray:7.0,7.0;"/><line style="stroke:#181818;stroke-width:1.0;" x1="359.2523" x2="358.5337" y1="356.6884" y2="346.7142"/><line style="stroke:#181818;stroke-width:1.0;" x1="359.2523" x2="368.6263" y1="356.6884" y2="353.2058"/><line style="stroke:#181818;stroke-width:1.0;" x1="359.2523" x2="363.58" y1="356.6884" y2="349.96"/><line style="stroke:#181818;stroke-width:1.0;" x1="354.8062" x2="361.5346" y1="356.2067" y2="360.5343"/><line style="stroke:#181818;stroke-width:1.0;" x1="233.0581" x2="226.3299" y1="560.2899" y2="555.9619"/><line style="stroke:#181818;stroke-width:1.0;" x1="234.6811" x2="227.9529" y1="557.7668" y2="553.4388"/><line style="stroke:#181818;stroke-width:1.0;" x1="231.858" x2="227.53" y1="554.7618" y2="561.49"/></g><!--link MangoChef to Order--><g id="link_MangoChef_Order"><path codeLine="140" d="M536.92,279.12 C578.67,279.12 594.42,279.12 636.17,279.12 " fill="none" id="MangoChef-Order" style="stroke:#181818;stroke-width:1.0;"/><line style="stroke:#181818;stroke-width:1.0;" x1="532.92" x2="532.92" y1="283.12" y2="275.12"/><line style="stroke:#181818;stroke-width:1.0;" x1="535.92" x2="535.92" y1="283.12" y2="275.12"/><line style="stroke:#181818;stroke-width:1.0;" x1="536.92" x2="528.92" y1="279.12" y2="279.12"/><line style="stroke:#181818;stroke-width:1.0;" x1="646.17" x2="654.17" y1="279.12" y2="273.12"/><line style="stroke:#181818;stroke-width:1.0;" x1="646.17" x2="654.17" y1="279.12" y2="285.12"/><line style="stroke:#181818;stroke-width:1.0;" x1="646.17" x2="654.17" y1="279.12" y2="279.12"/><ellipse cx="640.17" cy="279.12" fill="none" rx="4" ry="4" style="stroke:#181818;stroke-width:1.0;"/></g><!--link SupplierCompany to Ingredient--><g id="link_SupplierCompany_Ingredient"><path codeLine="142" d="M218.6198,894.4278 C234.9898,913.1878 242.6802,922.0022 259.8702,941.7022 " fill="none" id="SupplierCompany-Ingredient" style="stroke:#181818;stroke-width:1.0;stroke-dasharray:7.0,7.0;"/><line style="stroke:#181818;stroke-width:1.0;" x1="212.976" x2="219.0038" y1="894.0438" y2="888.784"/><line style="stroke:#181818;stroke-width:1.0;" x1="214.9485" x2="220.9762" y1="896.3042" y2="891.0444"/><line style="stroke:#181818;stroke-width:1.0;" x1="218.6198" x2="213.36" y1="894.4278" y2="888.4"/><line style="stroke:#181818;stroke-width:1.0;" x1="259.8702" x2="269.6509" y1="941.7022" y2="943.7851"/><line style="stroke:#181818;stroke-width:1.0;" x1="259.8702" x2="260.6091" y1="941.7022" y2="951.6749"/><line style="stroke:#181818;stroke-width:1.0;" x1="259.8702" x2="265.13" y1="941.7022" y2="947.73"/><line style="stroke:#181818;stroke-width:1.0;" x1="261.5692" x2="255.5413" y1="937.5653" y2="942.8251"/></g><!--link Customer to Order--><g id="link_Customer_Order"><path codeLine="144" d="M826.5,156.73 C826.5,178.73 826.5,176.85 826.5,198.24 " fill="none" id="Customer-Order" style="stroke:#181818;stroke-width:1.0;stroke-dasharray:7.0,7.0;"/><line style="stroke:#181818;stroke-width:1.0;" x1="822.5" x2="830.5" y1="152.73" y2="152.73"/><line style="stroke:#181818;stroke-width:1.0;" x1="822.5" x2="830.5" y1="155.73" y2="155.73"/><line style="stroke:#181818;stroke-width:1.0;" x1="826.5" x2="826.5" y1="156.73" y2="148.73"/><line style="stroke:#181818;stroke-width:1.0;" x1="826.5" x2="832.5" y1="208.24" y2="216.24"/><line style="stroke:#181818;stroke-width:1.0;" x1="826.5" x2="820.5" y1="208.24" y2="216.24"/><line style="stroke:#181818;stroke-width:1.0;" x1="826.5" x2="826.5" y1="208.24" y2="216.24"/><ellipse cx="826.5" cy="202.24" fill="none" rx="4" ry="4" style="stroke:#181818;stroke-width:1.0;"/></g><!--link Order to OrderMeal--><g id="link_Order_OrderMeal"><path codeLine="145" d="M829.2331,359.6996 C829.9931,381.9996 829.9551,380.7747 830.6651,401.4247 " fill="none" id="Order-OrderMeal" style="stroke:#181818;stroke-width:1.0;"/><line style="stroke:#181818;stroke-width:1.0;" x1="828.8925" x2="822.6235" y1="349.7054" y2="341.9144"/><line style="stroke:#181818;stroke-width:1.0;" x1="828.8925" x2="834.6165" y1="349.7054" y2="341.5056"/><line style="stroke:#181818;stroke-width:1.0;" x1="828.8925" x2="828.62" y1="349.7054" y2="341.71"/><ellipse cx="829.0969" cy="355.7019" fill="none" rx="4" ry="4" style="stroke:#181818;stroke-width:1.0;"/><line style="stroke:#181818;stroke-width:1.0;" x1="830.6651" x2="836.9365" y1="401.4247" y2="409.2138"/><line style="stroke:#181818;stroke-width:1.0;" x1="830.6651" x2="824.9435" y1="401.4247" y2="409.6262"/><line style="stroke:#181818;stroke-width:1.0;" x1="830.6651" x2="830.94" y1="401.4247" y2="409.42"/><line style="stroke:#181818;stroke-width:1.0;" x1="834.594" x2="826.5987" y1="399.2885" y2="399.5634"/></g><!--link OrderMeal to Meal--><g id="link_OrderMeal_Meal"><path codeLine="146" d="M836.4926,520.2143 C837.7926,540.8343 837.7178,539.5958 839.1178,561.8558 " fill="none" id="OrderMeal-Meal" style="stroke:#181818;stroke-width:1.0;"/><line style="stroke:#181818;stroke-width:1.0;" x1="835.8634" x2="829.3719" y1="510.2341" y2="502.6275"/><line style="stroke:#181818;stroke-width:1.0;" x1="835.8634" x2="841.3481" y1="510.2341" y2="501.8725"/><line style="stroke:#181818;stroke-width:1.0;" x1="835.8634" x2="835.36" y1="510.2341" y2="502.25"/><ellipse cx="836.2409" cy="516.2223" fill="none" rx="4" ry="4" style="stroke:#181818;stroke-width:1.0;"/><line style="stroke:#181818;stroke-width:1.0;" x1="839.1178" x2="845.6082" y1="561.8558" y2="569.4634"/><line style="stroke:#181818;stroke-width:1.0;" x1="839.1178" x2="833.6318" y1="561.8558" y2="570.2166"/><line style="stroke:#181818;stroke-width:1.0;" x1="839.1178" x2="839.62" y1="561.8558" y2="569.84"/><line style="stroke:#181818;stroke-width:1.0;" x1="842.9844" x2="835.0002" y1="559.6086" y2="560.1108"/></g><!--link RecipeIngredient to Recipe--><g id="link_RecipeIngredient_Recipe"><path codeLine="148" d="M592.0208,875.95 C643.2608,905.83 688.1798,932.0241 742.0898,963.4541 " fill="none" id="RecipeIngredient-Recipe" style="stroke:#181818;stroke-width:1.0;"/><line style="stroke:#181818;stroke-width:1.0;" x1="592.0208" x2="582.0875" y1="875.95" y2="877.1031"/><line style="stroke:#181818;stroke-width:1.0;" x1="592.0208" x2="588.1325" y1="875.95" y2="866.7369"/><line style="stroke:#181818;stroke-width:1.0;" x1="592.0208" x2="585.11" y1="875.95" y2="871.92"/><line style="stroke:#181818;stroke-width:1.0;" x1="591.7335" x2="595.7635" y1="880.4129" y2="873.502"/><line style="stroke:#181818;stroke-width:1.0;" x1="750.7288" x2="760.662" y1="968.4907" y2="967.3366"/><line style="stroke:#181818;stroke-width:1.0;" x1="750.7288" x2="754.618" y1="968.4907" y2="977.7034"/><line style="stroke:#181818;stroke-width:1.0;" x1="750.7288" x2="757.64" y1="968.4907" y2="972.52"/><ellipse cx="745.5454" cy="965.4687" fill="none" rx="4" ry="4" style="stroke:#181818;stroke-width:1.0;"/></g><!--link RecipeIngredient to Ingredient--><g id="link_RecipeIngredient_Ingredient"><path codeLine="149" d="M456.1836,885.481 C436.6236,907.891 429.5492,916.0017 407.1192,941.7117 " fill="none" id="RecipeIngredient-Ingredient" style="stroke:#181818;stroke-width:1.0;"/><line style="stroke:#181818;stroke-width:1.0;" x1="462.7594" x2="463.4997" y1="877.9471" y2="867.9745"/><line style="stroke:#181818;stroke-width:1.0;" x1="462.7594" x2="472.5403" y1="877.9471" y2="875.8655"/><line style="stroke:#181818;stroke-width:1.0;" x1="462.7594" x2="468.02" y1="877.9471" y2="871.92"/><ellipse cx="458.8139" cy="882.4674" fill="none" rx="4" ry="4" style="stroke:#181818;stroke-width:1.0;"/><line style="stroke:#181818;stroke-width:1.0;" x1="407.1192" x2="406.3812" y1="941.7117" y2="951.6844"/><line style="stroke:#181818;stroke-width:1.0;" x1="407.1192" x2="397.3388" y1="941.7117" y2="943.7956"/><line style="stroke:#181818;stroke-width:1.0;" x1="407.1192" x2="401.86" y1="941.7117" y2="947.74"/><line style="stroke:#181818;stroke-width:1.0;" x1="411.4482" x2="405.4199" y1="942.8342" y2="937.575"/></g><!--link RecipeTool to Recipe--><g id="link_RecipeTool_Recipe"><path codeLine="150" d="M1094.7054,876.0944 C1045.8554,905.9744 1003.8057,931.6985 952.4157,963.1285 " fill="none" id="RecipeTool-Recipe" style="stroke:#181818;stroke-width:1.0;"/><line style="stroke:#181818;stroke-width:1.0;" x1="1094.7054" x2="1098.3992" y1="876.0944" y2="866.8016"/><line style="stroke:#181818;stroke-width:1.0;" x1="1094.7054" x2="1104.6608" y1="876.0944" y2="877.0384"/><line style="stroke:#181818;stroke-width:1.0;" x1="1094.7054" x2="1101.53" y1="876.0944" y2="871.92"/><line style="stroke:#181818;stroke-width:1.0;" x1="1090.9121" x2="1095.0865" y1="873.7257" y2="880.5502"/><line style="stroke:#181818;stroke-width:1.0;" x1="943.8848" x2="940.1905" y1="968.346" y2="977.6386"/><line style="stroke:#181818;stroke-width:1.0;" x1="943.8848" x2="933.9295" y1="968.346" y2="967.4014"/><line style="stroke:#181818;stroke-width:1.0;" x1="943.8848" x2="937.06" y1="968.346" y2="972.52"/><ellipse cx="949.0034" cy="965.2155" fill="none" rx="4" ry="4" style="stroke:#181818;stroke-width:1.0;"/></g><!--link RecipeTool to Tool--><g id="link_RecipeTool_Tool"><path codeLine="151" d="M1175.5,889.92 C1175.5,922.44 1175.5,940.11 1175.5,972.67 " fill="none" id="RecipeTool-Tool" style="stroke:#181818;stroke-width:1.0;"/><line style="stroke:#181818;stroke-width:1.0;" x1="1175.5" x2="1169.5" y1="879.92" y2="871.92"/><line style="stroke:#181818;stroke-width:1.0;" x1="1175.5" x2="1181.5" y1="879.92" y2="871.92"/><line style="stroke:#181818;stroke-width:1.0;" x1="1175.5" x2="1175.5" y1="879.92" y2="871.92"/><ellipse cx="1175.5" cy="885.92" fill="none" rx="4" ry="4" style="stroke:#181818;stroke-width:1.0;"/><line style="stroke:#181818;stroke-width:1.0;" x1="1175.5" x2="1181.5" y1="972.67" y2="980.67"/><line style="stroke:#181818;stroke-width:1.0;" x1="1175.5" x2="1169.5" y1="972.67" y2="980.67"/><line style="stroke:#181818;stroke-width:1.0;" x1="1175.5" x2="1175.5" y1="972.67" y2="980.67"/><line style="stroke:#181818;stroke-width:1.0;" x1="1179.5" x2="1171.5" y1="970.67" y2="970.67"/></g><!--link Recipe to Step--><g id="link_Recipe_Step"><path codeLine="153" d="M849.5,1089.79 C849.5,1115.63 849.5,1130.75 849.5,1157.59 " fill="none" id="Recipe-Step" style="stroke:#181818;stroke-width:1.0;"/><line style="stroke:#181818;stroke-width:1.0;" x1="849.5" x2="843.5" y1="1089.79" y2="1081.79"/><line style="stroke:#181818;stroke-width:1.0;" x1="849.5" x2="855.5" y1="1089.79" y2="1081.79"/><line style="stroke:#181818;stroke-width:1.0;" x1="849.5" x2="849.5" y1="1089.79" y2="1081.79"/><line style="stroke:#181818;stroke-width:1.0;" x1="845.5" x2="853.5" y1="1091.79" y2="1091.79"/><line style="stroke:#181818;stroke-width:1.0;" x1="849.5" x2="855.5" y1="1157.59" y2="1165.59"/><line style="stroke:#181818;stroke-width:1.0;" x1="849.5" x2="843.5" y1="1157.59" y2="1165.59"/><line style="stroke:#181818;stroke-width:1.0;" x1="849.5" x2="849.5" y1="1157.59" y2="1165.59"/><line style="stroke:#181818;stroke-width:1.0;" x1="853.5" x2="845.5" y1="1155.59" y2="1155.59"/></g><!--link Meal to RecipeMeal--><g id="link_Meal_RecipeMeal"><path codeLine="154" d="M845.6912,703.2961 C846.5512,730.6761 847.0386,746.314 847.8286,771.444 " fill="none" id="Meal-RecipeMeal" style="stroke:#181818;stroke-width:1.0;"/><line style="stroke:#181818;stroke-width:1.0;" x1="845.6912" x2="839.443" y1="703.2961" y2="695.4884"/><line style="stroke:#181818;stroke-width:1.0;" x1="845.6912" x2="851.437" y1="703.2961" y2="695.1116"/><line style="stroke:#181818;stroke-width:1.0;" x1="845.6912" x2="845.44" y1="703.2961" y2="695.3"/><line style="stroke:#181818;stroke-width:1.0;" x1="841.7559" x2="849.752" y1="705.4206" y2="705.1695"/><line style="stroke:#181818;stroke-width:1.0;" x1="847.8286" x2="854.077" y1="771.444" y2="779.2515"/><line style="stroke:#181818;stroke-width:1.0;" x1="847.8286" x2="842.083" y1="771.444" y2="779.6285"/><line style="stroke:#181818;stroke-width:1.0;" x1="847.8286" x2="848.08" y1="771.444" y2="779.44"/><line style="stroke:#181818;stroke-width:1.0;" x1="851.7638" x2="843.7678" y1="769.3193" y2="769.5706"/></g><!--link RecipeMeal to Recipe--><g id="link_RecipeMeal_Recipe"><path codeLine="155" d="M849.5,879.92 C849.5,909.8 849.5,933.09 849.5,964.52 " fill="none" id="RecipeMeal-Recipe" style="stroke:#181818;stroke-width:1.0;"/><line style="stroke:#181818;stroke-width:1.0;" x1="849.5" x2="843.5" y1="879.92" y2="871.92"/><line style="stroke:#181818;stroke-width:1.0;" x1="849.5" x2="855.5" y1="879.92" y2="871.92"/><line style="stroke:#181818;stroke-width:1.0;" x1="849.5" x2="849.5" y1="879.92" y2="871.92"/><line style="stroke:#181818;stroke-width:1.0;" x1="845.5" x2="853.5" y1="881.92" y2="881.92"/><line style="stroke:#181818;stroke-width:1.0;" x1="849.5" x2="855.5" y1="964.52" y2="972.52"/><line style="stroke:#181818;stroke-width:1.0;" x1="849.5" x2="843.5" y1="964.52" y2="972.52"/><line style="stroke:#181818;stroke-width:1.0;" x1="849.5" x2="849.5" y1="964.52" y2="972.52"/><line style="stroke:#181818;stroke-width:1.0;" x1="853.5" x2="845.5" y1="962.52" y2="962.52"/></g><!--SRC=[rLTHRzem47xthx3KbqqAIElKbsgQHD4wK66W5kq5JP6RN8DLOsUsquf1__lE2IHH0eHseAay4EJxxBllkullwF4GQC1r880Ga9RR1UqcngevQB8a53zBOvdbmSkN-w_Z6xgYC6TSNDAVdTjkhtFxuVpYucEAQxNI1yBS0u4FN1lhIpQ7BUW29jWXg9WPywnqk1U4Tj1-e19fBsd_nwJgIIsOi0jVC_buIQTNMia_uD4xBfv0U_Ix4k4lyfBhC7AdqREpQSZC3D2qNG_BNUYJ_l3RtQGp75UqkBxvX9XWBQc_IxmKUOx8EPEHyeCPFEp3RaJHF43VruDHfyhL1PaOP3a66N8PURGlwLYhI8Cn7ksgUIp0Gftm49Xe8krbh3Avj_6lmLDgUFAkHDUAvtV2qg2oF1On7XBUYZPwQIAGvqD3m6Cue3vtfoBM43EDyIbPybNYT9lwE4XucWM-FwhwdgF9duLwj0HWOMe8EHw-H-4iVAkKQ4x3LdtlBCIdLBQPHNtVvmPAjOo4O0BDOrT5hrSWIri_Z_F_gl7AQfkWJASC-5Lfs1LgeUrRtuZcYoHWGcaEXcutioVi5-oUYpIygz5eK0K80Je2QVOMKDe-zM8lHaDKhyD239UnqycmXIUwpb_s98u51-qw79CBiiGz_pR776SsOM7eMczp4_43PY5IBWFJWNhsiEM5F9bxjCUZMRbT3zseqCL9uVqDQWXun7l2dwb4c_LjLPbVc61EWgm0AgJnYqNlSK1z0-yoORfQjKFrB5khPQtEgxWaRhSHLXH9_WkjBOsrP5jgcSryX5HEApigtMnayzSWj-SdPCCoVL6jpRvycYJ5N5aofnQodYTmNS23TUlLLaLglQjqI0tcZ4bSd9FUHAKsKjgRcl9jgtpTJGiaYxPOB4Qqqewo8sVw2m00]--></g></svg>